<svg width="175" height="50" viewBox="0 0 175 50" fill="none" xmlns="http://www.w3.org/2000/svg">
<path fill-rule="evenodd" clip-rule="evenodd" d="M18.0746 2.69136C7.97087 3.61828 0 11.8554 0 21.7942C0 29.1092 4.82343 35.8132 9.58283 40.647L18.0746 2.69136ZM30.3603 40.6536C35.1218 35.8193 39.9497 29.1126 39.9497 21.7942C39.9497 11.8527 31.9745 3.61385 21.8669 2.69061L30.3603 40.6536Z" fill="#F5173E"/>
<ellipse cx="19.9748" cy="22.0549" rx="14.5517" ry="14.5062" fill="white"/>
<mask id="mask0_9287_70" style="mask-type:alpha" maskUnits="userSpaceOnUse" x="9" y="0" width="22" height="50">
<path d="M19.9748 0L30.6158 49.6576H9.33392L19.9748 0Z" fill="#323232"/>
</mask>
<g mask="url(#mask0_9287_70)">
<path d="M19.9748 0L30.6158 49.6576H9.33392L19.9748 0Z" fill="#323232"/>
<path d="M19.9751 0L20.8366 49.6576H19.1276L19.9751 0Z" fill="white"/>
<rect x="18.7804" y="43.3419" width="2.38878" height="1.30678" fill="#323232"/>
<rect x="18.7804" y="34.5212" width="2.38878" height="1.30678" fill="#323232"/>
<rect x="18.7804" y="25.6998" width="2.38878" height="1.30678" fill="#323232"/>
<rect x="18.7804" y="16.8794" width="2.38878" height="1.30678" fill="#323232"/>
<rect x="18.7804" y="8.05878" width="2.38878" height="1.30678" fill="#323232"/>
</g>
<path d="M16.4401 33.4285V31.6905C16.4404 31.6235 16.4162 31.5588 16.372 31.5085C16.3278 31.4583 16.2667 31.426 16.2003 31.4178C15.3347 31.3039 14.4925 31.1626 13.6738 30.9938C13.6338 30.9855 13.5925 30.9861 13.5528 30.9957C13.5131 31.0054 13.476 31.0237 13.4443 31.0495C13.4126 31.0753 13.3871 31.1078 13.3695 31.1447C13.352 31.1816 13.3429 31.2219 13.3429 31.2627V33.4285C13.3432 33.556 13.394 33.6781 13.4841 33.7682C13.5742 33.8583 13.6963 33.9091 13.8238 33.9094H15.9592C16.0866 33.9091 16.2087 33.8583 16.2988 33.7682C16.389 33.6781 16.4397 33.556 16.4401 33.4285Z" fill="white"/>
<path d="M23.5457 33.4287V31.6906C23.5454 31.6236 23.5696 31.5589 23.6138 31.5086C23.658 31.4584 23.7191 31.4261 23.7855 31.4179C24.6511 31.304 25.4934 31.1627 26.3126 30.9939C26.3526 30.9856 26.3939 30.9862 26.4335 30.9958C26.4732 31.0055 26.5102 31.0238 26.5419 31.0496C26.5736 31.0754 26.599 31.1079 26.6165 31.1448C26.634 31.1817 26.643 31.222 26.6429 31.2629V33.4287C26.6426 33.5561 26.5918 33.6782 26.5017 33.7683C26.4116 33.8584 26.2894 33.9092 26.162 33.9095H24.0266C23.8992 33.9092 23.777 33.8584 23.6869 33.7683C23.5968 33.6782 23.5461 33.5561 23.5457 33.4287Z" fill="white"/>
<path fill-rule="evenodd" clip-rule="evenodd" d="M28.2886 13.7732L29.9584 14.323C30.3374 14.4425 30.6754 14.6659 30.9337 14.9679C31.1921 15.2699 31.3606 15.6384 31.42 16.0313L31.8508 18.6109C31.8692 18.7227 31.8431 18.8372 31.7782 18.93C31.7133 19.0227 31.6147 19.0865 31.5035 19.1076L30.562 19.2867C30.4491 19.3076 30.3325 19.2831 30.2377 19.2183C30.1428 19.1536 30.0775 19.054 30.0558 18.9412L29.5161 16.0908C29.4757 15.8597 29.3721 15.6443 29.2169 15.4683C29.0617 15.2923 28.8609 15.1627 28.6366 15.0937L28.5329 15.0601C29.0006 17.8619 29.2322 20.698 29.2251 23.5386C29.228 25.7719 29.0868 28.0031 28.8024 30.2182C28.7538 30.6256 28.5769 31.007 28.2974 31.3074C28.0178 31.6077 27.6501 31.8115 27.2472 31.8892C24.86 32.3681 22.4309 32.6066 19.9962 32.601C17.5615 32.6066 15.1324 32.3681 12.7452 31.8892C12.3424 31.8114 11.9747 31.6076 11.6952 31.3073C11.4156 31.0069 11.2387 30.6256 11.19 30.2182C10.9056 28.0031 10.7644 25.7719 10.7673 23.5386C10.7605 20.698 10.9921 17.8619 11.4595 15.0601L11.3558 15.0937C11.1315 15.1627 10.9307 15.2923 10.7755 15.4683C10.6203 15.6443 10.5168 15.8597 10.4763 16.0908L9.93659 18.9412C9.91495 19.054 9.84957 19.1536 9.75473 19.2183C9.6599 19.2831 9.5433 19.3076 9.43041 19.2867L8.48449 19.1083C8.37336 19.087 8.27493 19.0232 8.21016 18.9304C8.1454 18.8376 8.11942 18.7232 8.13776 18.6116L8.56548 16.0294C8.62488 15.6365 8.79334 15.268 9.05171 14.966C9.31009 14.664 9.64801 14.4406 10.0271 14.3211L11.6968 13.7713C11.8234 13.1571 11.9588 12.5594 12.103 11.9781C12.1916 11.6081 12.3875 11.2725 12.6663 11.0136C12.945 10.7547 13.2941 10.5839 13.6696 10.5229C17.8554 9.80837 22.132 9.80837 26.3177 10.5229C26.6933 10.5839 27.0424 10.7546 27.3212 11.0135C27.5999 11.2725 27.7959 11.6081 27.8843 11.9781C28.0307 12.5615 28.1655 13.1598 28.2886 13.7732Z" fill="#323232"/>
<path d="M12.667 27.1735C12.7035 27.165 12.7415 27.1646 12.7783 27.1722V27.1735C14.1905 27.4562 15.4563 28.2304 16.3503 29.358C16.382 29.3976 16.4016 29.4454 16.4068 29.4958C16.4121 29.5462 16.4027 29.597 16.3799 29.6422C16.357 29.6874 16.3216 29.7251 16.278 29.7508C16.2343 29.7766 16.1841 29.7892 16.1334 29.7873C14.924 29.7408 13.901 29.6625 12.8365 29.5287C12.6047 29.4996 12.4519 28.9934 12.4163 28.4452C12.4027 28.237 12.3762 27.3668 12.5665 27.2213C12.5962 27.1983 12.6304 27.182 12.667 27.1735Z" fill="white"/>
<path d="M27.3591 27.1734C27.3226 27.1649 27.2846 27.1645 27.2479 27.1721V27.1734C25.8356 27.4561 24.5698 28.2303 23.6758 29.358C23.6441 29.3975 23.6245 29.4453 23.6193 29.4957C23.6141 29.5461 23.6234 29.5969 23.6463 29.6421C23.6691 29.6873 23.7045 29.7251 23.7482 29.7508C23.7918 29.7765 23.842 29.7892 23.8927 29.7873C25.1022 29.7407 26.1252 29.6625 27.1896 29.5286C27.4214 29.4996 27.5742 28.9933 27.6098 28.4451C27.6234 28.2369 27.6499 27.3667 27.4596 27.2212C27.43 27.1982 27.3957 27.1819 27.3591 27.1734Z" fill="white"/>
<path d="M27.3329 24.5631C27.1391 24.7585 26.8824 24.8792 26.6083 24.9039C24.5406 25.1045 22.326 25.212 20.0223 25.212C17.7186 25.212 15.504 25.1038 13.4388 24.9039C13.1647 24.8793 12.908 24.7588 12.714 24.5635C12.52 24.3683 12.4012 24.1108 12.3784 23.8365C12.2917 22.8621 12.2455 21.8573 12.2455 20.8298C12.2418 18.8502 12.4191 16.8745 12.7751 14.9272C12.8198 14.6735 12.9474 14.4418 13.138 14.2684C13.3285 14.0951 13.5712 13.9898 13.828 13.9692C15.7818 13.7927 17.8635 13.6971 20.0248 13.6971C22.1862 13.6971 24.2679 13.7927 26.2223 13.9692C26.479 13.99 26.7215 14.0952 26.9119 14.2686C27.1023 14.4419 27.2299 14.6736 27.2745 14.9272C27.6295 16.8743 27.8057 18.8499 27.801 20.8292C27.801 21.8567 27.7554 22.8615 27.6681 23.8358C27.6455 24.1102 27.5268 24.3677 27.3329 24.5631Z" fill="white"/>
<path d="M17.5848 11.3266C18.3886 11.2395 19.1799 11.1966 19.9884 11.1972H19.9993C20.8097 11.1961 21.6195 11.2395 22.4251 11.3266C22.5165 11.3359 22.6017 11.3772 22.6656 11.4432C22.7295 11.5092 22.768 11.5956 22.7744 11.6872L22.844 12.592C22.8482 12.6472 22.8408 12.7025 22.8221 12.7546C22.8034 12.8066 22.774 12.8542 22.7357 12.8941C22.6975 12.9339 22.6512 12.9653 22.6 12.9861C22.5487 13.0069 22.4937 13.0166 22.4384 13.0147C21.6404 12.9873 20.8292 12.9736 20.005 12.9736C19.1808 12.9736 18.3696 12.9873 17.5716 13.0147C17.5163 13.0165 17.4614 13.0067 17.4102 12.9859C17.3591 12.9651 17.3129 12.9337 17.2747 12.8938C17.2365 12.8539 17.2071 12.8064 17.1885 12.7544C17.1698 12.7024 17.1624 12.6471 17.1666 12.592L17.2356 11.6872C17.242 11.5956 17.2805 11.5092 17.3444 11.4432C17.4083 11.3772 17.4935 11.3359 17.5848 11.3266Z" fill="white"/>
<path d="M44.9496 37.5672L47.0636 19.9096H49.3729C49.8466 19.9096 50.2197 20.028 50.4921 20.2649C50.7645 20.4899 50.8888 20.857 50.8651 21.3663L50.7763 24.0842C51.2263 23.2315 51.706 22.4972 52.2152 21.8814C52.7363 21.2656 53.2751 20.786 53.8318 20.4425C54.4002 20.0991 54.9746 19.8977 55.5549 19.8385C56.147 19.7793 56.7392 19.88 57.3313 20.1405L56.5141 24.4217C55.7917 24.1256 55.1167 24.0072 54.489 24.0664C53.8614 24.1256 53.287 24.3802 52.7659 24.8303C52.2448 25.2803 51.7711 25.9376 51.3448 26.8021C50.9303 27.6548 50.5691 28.7266 50.2611 30.0174L49.3729 37.5672H44.9496Z" fill="#323232"/>
<path d="M66.0926 34.3841C66.886 34.3841 67.5966 34.1887 68.2243 33.7978C68.8519 33.407 69.3849 32.886 69.823 32.2346C70.2731 31.5714 70.6165 30.8075 70.8534 29.943C71.0902 29.0666 71.2087 28.1488 71.2087 27.1896C71.2087 25.7566 70.9304 24.7144 70.3737 24.0631C69.829 23.4117 68.9941 23.086 67.869 23.086C67.0874 23.086 66.3768 23.2814 65.7373 23.6722C65.1096 24.0512 64.5708 24.5664 64.1207 25.2177C63.6826 25.8691 63.345 26.6329 63.1082 27.5093C62.8713 28.3857 62.7529 29.3094 62.7529 30.2805C62.7529 31.6898 63.0312 32.7261 63.5878 33.3893C64.1444 34.0525 64.9793 34.3841 66.0926 34.3841ZM65.7373 37.8303C64.6596 37.8303 63.6589 37.6645 62.7351 37.3329C61.8232 37.0013 61.0357 36.5158 60.3725 35.8763C59.7093 35.2367 59.1882 34.4492 58.8092 33.5136C58.4303 32.578 58.2408 31.5063 58.2408 30.2983C58.2408 28.7706 58.5013 27.3613 59.0224 26.0704C59.5553 24.7677 60.2718 23.6426 61.1719 22.6952C62.0838 21.7359 63.1437 20.9899 64.3517 20.4569C65.5596 19.9122 66.8505 19.6398 68.2243 19.6398C69.302 19.6398 70.2968 19.8056 71.2087 20.1372C72.1206 20.4688 72.9081 20.9543 73.5713 21.5938C74.2463 22.2333 74.7733 23.0209 75.1523 23.9565C75.5313 24.8921 75.7208 25.9638 75.7208 27.1718C75.7208 28.6758 75.4602 30.0792 74.9391 31.3819C74.4181 32.6728 73.7016 33.7978 72.7897 34.7571C71.8896 35.7164 70.8297 36.4684 69.6099 37.0132C68.4019 37.5579 67.111 37.8303 65.7373 37.8303Z" fill="#323232"/>
<path d="M84.2157 11.9999L82.4215 26.531H82.8301C83.1025 26.531 83.3216 26.4896 83.4874 26.4067C83.6532 26.3238 83.8308 26.1698 84.0203 25.9448L88.2837 20.6511C88.485 20.4142 88.6982 20.2307 88.9232 20.1004C89.1482 19.9583 89.4324 19.8872 89.7759 19.8872H93.8084L88.3903 26.3712C88.1653 26.6317 87.9343 26.8626 87.6975 27.064C87.4725 27.2653 87.2297 27.4429 86.9691 27.5969C87.1823 27.7745 87.3718 27.9818 87.5376 28.2186C87.7034 28.4555 87.8514 28.716 87.9817 29.0003L91.9609 37.5271H88.035C87.7152 37.5271 87.4429 37.4679 87.2178 37.3494C87.0047 37.231 86.8329 37.0297 86.7027 36.7455L83.7005 30.1727C83.5703 29.9003 83.4341 29.7227 83.292 29.6398C83.1617 29.5569 82.9307 29.5154 82.5991 29.5154H82.0485L81.0714 37.5271H76.6304L79.7569 11.9999H84.2157Z" fill="#323232"/>
<path d="M110.972 24.1341C110.972 24.9157 110.794 25.6322 110.439 26.2836C110.096 26.9231 109.48 27.5034 108.592 28.0245C107.703 28.5337 106.49 28.9719 104.95 29.339C103.422 29.7062 101.48 29.9963 99.1233 30.2095C99.1233 31.6069 99.449 32.6432 100.1 33.3182C100.764 33.9814 101.77 34.313 103.12 34.313C103.973 34.313 104.672 34.2183 105.216 34.0288C105.773 33.8393 106.247 33.632 106.638 33.407C107.028 33.1702 107.372 32.957 107.668 32.7675C107.976 32.578 108.313 32.4833 108.68 32.4833C109 32.4833 109.273 32.6136 109.498 32.8741L110.67 34.2597C110.007 34.8755 109.361 35.4085 108.734 35.8585C108.106 36.2967 107.455 36.6638 106.78 36.9599C106.116 37.2441 105.412 37.4514 104.666 37.5816C103.931 37.7237 103.132 37.7948 102.268 37.7948C101.131 37.7948 100.094 37.6172 99.1588 37.2619C98.2351 36.9066 97.4416 36.4033 96.7784 35.7519C96.1271 35.0887 95.6178 34.3012 95.2507 33.3893C94.8954 32.4655 94.7178 31.4352 94.7178 30.2983C94.7178 28.9127 94.9546 27.5804 95.4283 26.3013C95.9139 25.0105 96.5949 23.8736 97.4712 22.8906C98.3594 21.9077 99.4253 21.1201 100.669 20.528C101.924 19.9358 103.327 19.6398 104.879 19.6398C105.897 19.6398 106.786 19.776 107.544 20.0483C108.313 20.3089 108.947 20.6583 109.444 21.0964C109.954 21.5228 110.333 22.0024 110.581 22.5353C110.842 23.0683 110.972 23.6012 110.972 24.1341ZM104.666 22.7663C104.026 22.7663 103.428 22.8788 102.872 23.1038C102.327 23.317 101.835 23.6249 101.397 24.0275C100.959 24.4183 100.58 24.898 100.26 25.4664C99.9405 26.023 99.6858 26.6389 99.4963 27.3139C101.083 27.1244 102.362 26.9231 103.333 26.7099C104.305 26.4849 105.057 26.2481 105.589 25.9994C106.122 25.7388 106.478 25.4664 106.655 25.1822C106.833 24.8861 106.922 24.5723 106.922 24.2407C106.922 24.0631 106.88 23.8913 106.797 23.7255C106.715 23.5479 106.578 23.388 106.389 23.2459C106.211 23.1038 105.98 22.9913 105.696 22.9084C105.412 22.8136 105.068 22.7663 104.666 22.7663Z" fill="#323232"/>
<path d="M113.048 33.7166C113.048 33.6337 113.048 33.5272 113.048 33.3969C113.06 33.2666 113.071 33.0949 113.083 32.8817C113.107 32.6567 113.131 32.3902 113.154 32.0823C113.19 31.7744 113.231 31.4014 113.279 30.9632L114.238 23.2713H112.568C112.355 23.2713 112.177 23.1943 112.035 23.0403C111.905 22.8746 111.857 22.6377 111.893 22.3298L112.106 20.5356L114.86 20.0204L116.299 15.3662C116.464 14.8807 116.802 14.6379 117.311 14.6379H119.727L119.052 20.0737H123.404L123.049 23.2713H118.643L117.72 30.7323C117.66 31.1823 117.613 31.5435 117.578 31.8159C117.554 32.0883 117.53 32.3014 117.507 32.4554C117.495 32.6093 117.489 32.7218 117.489 32.7929C117.489 32.8521 117.489 32.8936 117.489 32.9173C117.489 33.3317 117.595 33.6574 117.808 33.8943C118.022 34.1311 118.33 34.2496 118.732 34.2496C118.969 34.2496 119.17 34.2259 119.336 34.1785C119.502 34.1193 119.65 34.0542 119.78 33.9831C119.911 33.912 120.023 33.8528 120.118 33.8055C120.213 33.7462 120.307 33.7166 120.402 33.7166C120.639 33.7166 120.817 33.8528 120.935 34.1252L121.912 36.3102C121.249 36.8195 120.52 37.2043 119.727 37.4649C118.945 37.7254 118.146 37.8557 117.329 37.8557C116.678 37.8557 116.085 37.7669 115.552 37.5892C115.031 37.4116 114.581 37.1511 114.202 36.8076C113.835 36.4523 113.551 36.0201 113.35 35.5108C113.148 34.9897 113.048 34.3917 113.048 33.7166Z" fill="#323232"/>
<path d="M124.314 37.5271L127.387 11.9999H131.81L130.425 23.2802C131.277 22.1551 132.219 21.2669 133.249 20.6155C134.291 19.9524 135.399 19.6208 136.571 19.6208C137.341 19.6208 138.034 19.7569 138.65 20.0293C139.277 20.2899 139.81 20.6925 140.248 21.2373C140.698 21.7821 141.042 22.4749 141.279 23.3157C141.527 24.1447 141.652 25.1277 141.652 26.2646C141.652 27.7686 141.415 29.2193 140.941 30.6168C140.479 32.0024 139.846 33.2281 139.04 34.294C138.235 35.3598 137.293 36.2125 136.216 36.852C135.15 37.4797 134.013 37.7935 132.805 37.7935C131.869 37.7935 131.035 37.6159 130.3 37.2606C129.578 36.9053 128.968 36.4257 128.471 35.8217L128.328 36.3013C128.198 36.7158 128.027 37.0238 127.813 37.2251C127.6 37.4264 127.245 37.5271 126.747 37.5271H124.314ZM134.83 23.1381C134.356 23.1381 133.871 23.2979 133.374 23.6177C132.888 23.9375 132.414 24.3756 131.952 24.9323C131.502 25.477 131.082 26.1225 130.691 26.8686C130.3 27.6146 129.969 28.414 129.696 29.2667L129.199 33.3347C129.602 33.7137 130.058 33.9861 130.567 34.1519C131.076 34.3058 131.579 34.3828 132.077 34.3828C132.835 34.3828 133.527 34.1578 134.155 33.7078C134.783 33.2577 135.316 32.6715 135.754 31.9491C136.204 31.2149 136.547 30.3918 136.784 29.4799C137.033 28.568 137.157 27.6443 137.157 26.7087C137.157 25.4889 136.95 24.5888 136.536 24.0085C136.133 23.4282 135.564 23.1381 134.83 23.1381Z" fill="#F5173E"/>
<path d="M148.495 19.9128L147.163 31.1042C147.033 32.2056 147.098 32.9872 147.358 33.4491C147.631 33.9109 148.116 34.1419 148.815 34.1419C149.277 34.1419 149.751 34.0175 150.236 33.7688C150.722 33.5201 151.19 33.1708 151.64 32.7207C152.101 32.2589 152.522 31.7082 152.901 31.0687C153.292 30.4173 153.611 29.6949 153.86 28.9014L154.926 19.9128H159.438L157.289 37.5526H155.032C153.919 37.5526 153.38 37.0374 153.416 36.0071L153.487 34.1596C152.575 35.3913 151.574 36.3091 150.485 36.9131C149.395 37.5171 148.27 37.8191 147.11 37.8191C146.34 37.8191 145.653 37.671 145.049 37.375C144.445 37.0789 143.942 36.6466 143.539 36.0782C143.136 35.5097 142.852 34.811 142.686 33.982C142.532 33.1412 142.521 32.1819 142.651 31.1042L143.983 19.9128H148.495Z" fill="#F5173E"/>
<path d="M173.83 23.2814C173.7 23.4709 173.57 23.6071 173.44 23.69C173.321 23.7729 173.161 23.8144 172.96 23.8144C172.747 23.8144 172.528 23.7611 172.303 23.6545C172.089 23.5361 171.835 23.4058 171.539 23.2637C171.255 23.1216 170.923 22.9972 170.544 22.8906C170.165 22.7722 169.715 22.713 169.194 22.713C168.235 22.713 167.494 22.9084 166.973 23.2992C166.464 23.6782 166.21 24.1519 166.21 24.7203C166.21 25.1822 166.393 25.5671 166.76 25.875C167.127 26.1711 167.583 26.4435 168.128 26.6922C168.685 26.929 169.283 27.1659 169.922 27.4027C170.562 27.6396 171.154 27.9297 171.699 28.2732C172.255 28.6166 172.717 29.043 173.084 29.5522C173.451 30.0614 173.635 30.7069 173.635 31.4885C173.635 32.3412 173.457 33.1524 173.102 33.9222C172.747 34.6801 172.238 35.3493 171.574 35.9296C170.911 36.498 170.106 36.954 169.158 37.2974C168.223 37.629 167.169 37.7948 165.996 37.7948C165.404 37.7948 164.83 37.7415 164.273 37.6349C163.717 37.5283 163.196 37.3803 162.71 37.1908C162.224 36.9895 161.78 36.7585 161.378 36.498C160.975 36.2375 160.632 35.9532 160.347 35.6453L161.431 33.9577C161.561 33.7564 161.715 33.6084 161.893 33.5136C162.082 33.407 162.313 33.3537 162.586 33.3537C162.834 33.3537 163.065 33.4248 163.278 33.5669C163.492 33.709 163.734 33.8689 164.007 34.0465C164.291 34.2242 164.629 34.3841 165.019 34.5262C165.422 34.6683 165.937 34.7393 166.565 34.7393C167.062 34.7393 167.5 34.6801 167.879 34.5617C168.258 34.4433 168.578 34.2834 168.839 34.0821C169.111 33.8689 169.312 33.632 169.443 33.3715C169.585 33.0991 169.656 32.8149 169.656 32.5188C169.656 32.1399 169.549 31.8201 169.336 31.5596C169.123 31.299 168.845 31.074 168.501 30.8845C168.158 30.695 167.761 30.5292 167.311 30.3871C166.873 30.2332 166.417 30.0733 165.943 29.9075C165.481 29.7417 165.025 29.5522 164.575 29.339C164.137 29.114 163.746 28.8476 163.403 28.5396C163.059 28.2199 162.781 27.835 162.568 27.385C162.355 26.9349 162.248 26.3902 162.248 25.7507C162.248 24.969 162.402 24.2111 162.71 23.4768C163.03 22.7426 163.492 22.0912 164.096 21.5228C164.711 20.9543 165.463 20.4984 166.352 20.1549C167.252 19.8115 168.276 19.6398 169.425 19.6398C170.633 19.6398 171.699 19.8293 172.622 20.2082C173.546 20.5872 174.322 21.0787 174.95 21.6827L173.83 23.2814Z" fill="#F5173E"/>
</svg>
