<svg width="760" height="365" viewBox="0 0 760 365" fill="none" xmlns="http://www.w3.org/2000/svg">
<g clip-path="url(#clip0_84_12434)">
<path d="M690.872 323.365H759.083C750.132 306.424 735.137 295.311 718.142 295.311C711.939 295.327 705.825 296.801 700.296 299.614C699.95 296.3 699.311 293.023 698.386 289.822C695.931 290.441 693.412 290.774 690.88 290.815L690.872 323.365Z" fill="#F5173E"/>
<path d="M654.339 323.365H689.721V290.811C673.178 290.525 659.571 278.015 657.552 261.937C655.196 262.701 652.944 263.756 650.85 265.079C652.608 283.337 653.327 300.27 653.859 312.822C654.029 316.871 654.18 320.392 654.339 323.365Z" fill="#F5173E"/>
<path d="M689.721 246.09L676.864 230.098C676.816 230.039 676.781 229.972 676.76 229.899C676.738 229.827 676.732 229.75 676.74 229.675C676.748 229.6 676.771 229.527 676.807 229.461C676.843 229.394 676.892 229.336 676.951 229.288C677.01 229.241 677.078 229.205 677.15 229.184C677.223 229.163 677.299 229.156 677.374 229.164C677.449 229.172 677.522 229.195 677.589 229.231C677.655 229.268 677.713 229.317 677.761 229.376L689.721 244.251V209.799C689.721 209.646 689.781 209.5 689.889 209.392C689.997 209.284 690.144 209.223 690.296 209.223C690.449 209.223 690.595 209.284 690.703 209.392C690.811 209.5 690.872 209.646 690.872 209.799V262.652C695.238 258.331 701.343 252.161 701.873 251.299C701.914 251.168 702.001 251.055 702.117 250.982C702.234 250.909 702.373 250.88 702.509 250.9C702.646 250.921 702.77 250.99 702.86 251.094C702.949 251.199 702.999 251.332 702.999 251.47C702.999 251.762 702.999 252.308 690.872 264.273V289.66C708.175 289.35 722.157 275.183 722.157 257.801C722.145 252.797 720.961 247.866 718.7 243.403C716.439 238.94 713.164 235.07 709.137 232.102C709.02 232.015 708.94 231.887 708.913 231.743C708.886 231.6 708.914 231.451 708.993 231.328C711.118 227.977 712.305 224.117 712.43 220.151C712.555 216.184 711.613 212.257 709.702 208.779C707.792 205.302 704.983 202.401 701.569 200.381C698.155 198.361 694.262 197.295 690.295 197.295C686.329 197.295 682.436 198.361 679.022 200.381C675.608 202.401 672.799 205.302 670.889 208.779C668.978 212.257 668.036 216.184 668.161 220.151C668.286 224.117 669.473 227.977 671.598 231.328C671.677 231.451 671.705 231.6 671.678 231.743C671.651 231.887 671.571 232.015 671.453 232.102C667.427 235.07 664.152 238.94 661.891 243.403C659.631 247.866 658.447 252.797 658.436 257.801C658.436 275.183 672.418 289.35 689.721 289.66V246.09Z" fill="#F5173E"/>
<path d="M689.721 290.811V289.659C672.418 289.35 658.436 275.183 658.436 257.801C658.447 252.797 659.631 247.866 661.891 243.403C664.152 238.94 667.427 235.07 671.453 232.102C671.571 232.015 671.651 231.887 671.678 231.743C671.705 231.6 671.677 231.451 671.598 231.328C669.473 227.977 668.286 224.117 668.161 220.151C668.036 216.184 668.978 212.257 670.889 208.779C672.799 205.302 675.608 202.401 679.022 200.381C682.436 198.361 686.329 197.295 690.295 197.295C694.262 197.295 698.155 198.361 701.569 200.381C704.983 202.401 707.792 205.302 709.702 208.779C711.613 212.257 712.555 216.184 712.43 220.151C712.305 224.117 711.118 227.977 708.993 231.328C708.914 231.451 708.886 231.6 708.913 231.743C708.94 231.887 709.02 232.015 709.137 232.102C713.164 235.07 716.439 238.94 718.7 243.403C720.961 247.866 722.145 252.797 722.157 257.801C722.157 275.183 708.175 289.35 690.872 289.659V290.811C693.404 290.77 695.923 290.437 698.378 289.818C712.686 286.202 723.308 273.219 723.308 257.797C723.297 252.702 722.112 247.679 719.847 243.116C717.581 238.554 714.296 234.575 710.245 231.488C712.377 227.952 713.533 223.913 713.593 219.783C713.653 215.654 712.615 211.583 710.586 207.986C708.557 204.39 705.609 201.397 702.044 199.315C698.48 197.233 694.426 196.136 690.298 196.136C686.171 196.136 682.117 197.233 678.553 199.315C674.988 201.397 672.04 204.39 670.011 207.986C667.982 211.583 666.944 215.654 667.004 219.783C667.064 223.913 668.219 227.952 670.352 231.488C665.726 234.984 662.105 239.641 659.858 244.988C657.61 250.334 656.815 256.18 657.552 261.933C659.571 278.019 673.178 290.529 689.721 290.811Z" fill="#212529"/>
<path d="M690.872 289.66V264.273L690.699 264.441C690.591 264.549 690.445 264.609 690.292 264.609C690.14 264.609 689.994 264.549 689.886 264.441C689.778 264.333 689.717 264.187 689.717 264.034C689.717 263.882 689.778 263.735 689.886 263.627C690.199 263.317 690.529 262.994 690.866 262.658V209.799C690.866 209.646 690.805 209.5 690.697 209.392C690.589 209.284 690.443 209.223 690.29 209.223C690.138 209.223 689.991 209.284 689.883 209.392C689.775 209.5 689.715 209.646 689.715 209.799V244.259L690.739 245.534C690.834 245.654 690.878 245.806 690.861 245.958C690.845 246.11 690.769 246.249 690.65 246.345C690.591 246.392 690.523 246.428 690.451 246.449C690.378 246.47 690.302 246.477 690.227 246.468C690.152 246.46 690.079 246.437 690.013 246.4C689.947 246.364 689.889 246.314 689.842 246.255L689.715 246.098V323.373H690.866V289.66H690.872Z" fill="#212529"/>
<path d="M702.999 251.47C702.999 251.332 702.949 251.199 702.86 251.094C702.77 250.99 702.646 250.921 702.509 250.9C702.373 250.88 702.234 250.908 702.117 250.982C702.001 251.055 701.914 251.168 701.873 251.299C701.343 252.161 695.234 258.331 690.872 262.652C690.535 262.988 690.205 263.311 689.891 263.621C689.808 263.701 689.751 263.803 689.726 263.916C689.702 264.028 689.711 264.145 689.754 264.252C689.797 264.359 689.871 264.451 689.966 264.515C690.061 264.58 690.173 264.614 690.288 264.614C690.437 264.613 690.58 264.554 690.685 264.449L690.858 264.281C702.995 252.308 702.999 251.762 702.999 251.47Z" fill="#212529"/>
<path d="M676.951 229.288C676.892 229.336 676.843 229.394 676.807 229.461C676.771 229.527 676.748 229.6 676.74 229.675C676.732 229.75 676.738 229.827 676.76 229.899C676.781 229.972 676.816 230.039 676.864 230.098L689.721 246.09L689.848 246.247C689.895 246.306 689.953 246.356 690.019 246.393C690.085 246.429 690.158 246.452 690.233 246.461C690.308 246.469 690.384 246.462 690.457 246.441C690.529 246.42 690.597 246.384 690.656 246.337C690.775 246.241 690.851 246.102 690.867 245.95C690.884 245.798 690.84 245.646 690.745 245.526L689.721 244.251L677.761 229.376C677.665 229.257 677.526 229.181 677.374 229.165C677.222 229.148 677.07 229.193 676.951 229.288Z" fill="#212529"/>
<path d="M85.2301 295.317C85.0415 295.317 84.853 295.317 84.6625 295.317C62.5625 295.317 43.0625 306.438 31.4221 323.371H85.895C85.6151 315.829 85.3412 306.174 85.2301 295.317Z" fill="#F5173E"/>
<path d="M661 174.716V170.903H625.997C626.783 172.137 627.546 173.408 628.285 174.716H661Z" fill="#F5173E"/>
<path d="M620.057 162.84H648.089V159.027H616.506C617.04 159.572 617.576 160.112 618.094 160.666C618.763 161.373 619.416 162.103 620.057 162.84Z" fill="#F5173E"/>
<path d="M275.242 176.241C286.017 168.144 298.225 162.256 311.971 158.567L311.815 156.861C311.806 156.763 311.822 156.664 311.863 156.574C311.903 156.484 311.966 156.405 312.045 156.347C312.243 156.2 317.023 152.772 333.16 152.264H333.18C333.274 152.264 333.367 152.287 333.449 152.331C333.532 152.375 333.603 152.44 333.655 152.518C335.379 141.711 335.407 136.879 335.441 131.381C335.441 130.326 335.453 129.254 335.469 128.114C329.262 132.961 319.107 140.575 312.896 143.58C312.818 143.617 312.733 143.637 312.646 143.637C312.557 143.636 312.469 143.615 312.388 143.576C303.755 139.255 299.065 126.406 298.451 105.388C298.309 100.481 298.418 95.6814 298.632 91.4019C295.924 91.0429 293.195 90.8625 290.463 90.8618C262.782 90.8618 239.372 109.131 231.614 134.278C249.308 142.219 265.705 157.909 275.242 176.241Z" fill="#F5173E"/>
<path d="M374.288 147.613C374.776 150.163 375.225 152.164 375.596 153.666C376.128 152.633 376.427 152.077 376.443 152.047C376.502 151.938 376.595 151.851 376.707 151.799C376.819 151.747 376.945 151.732 377.066 151.757C377.245 151.795 395.165 155.558 405.647 160.809C405.721 160.847 405.785 160.902 405.835 160.97C411.9 162.742 417.725 165.251 423.18 168.44C428.497 171.569 433.466 175.254 438.004 179.434C439.518 173.294 441.098 168.635 442.686 166.59C454.874 150.901 469.769 138.957 486.35 131.297C475.632 110.48 453.933 96.2454 428.914 96.2454C417.083 96.225 405.476 99.4726 395.372 105.63C393.859 116.155 390.837 126.176 386.387 134.993C383.811 140.389 379.569 144.813 374.288 147.613Z" fill="#F5173E"/>
<path d="M323.981 122.794C315.286 118.187 308.661 107.03 305.805 92.1823L305.555 90.8856C303.824 81.9494 301.468 69.7424 302.965 56.4373C302.446 56.2362 301.94 56.0021 301.45 55.7364C301.359 55.6795 301.286 55.5984 301.238 55.502L301.222 75.3147C301.224 75.3418 301.224 75.369 301.222 75.3961C301.139 75.9641 293.244 132.191 312.65 142.416C318.97 139.282 329.485 131.331 335.497 126.621C335.514 125.872 335.536 125.094 335.57 124.263C332.118 125.415 327.953 124.899 323.981 122.794Z" fill="#212529"/>
<path d="M298.443 105.388C299.057 126.406 303.747 139.255 312.38 143.576C312.461 143.615 312.549 143.636 312.638 143.637C312.725 143.637 312.81 143.617 312.888 143.58C319.099 140.575 329.254 132.961 335.461 128.114C335.469 127.632 335.478 127.134 335.49 126.621C329.479 131.331 318.964 139.282 312.644 142.416C293.238 132.191 301.133 75.9641 301.216 75.3961C301.218 75.369 301.218 75.3418 301.216 75.3147L301.232 55.502C301.215 55.4755 301.2 55.4476 301.188 55.4186C301.135 55.2558 300.254 52.5253 300.089 48.4325L300.065 75.273C299.982 75.8687 299.073 82.4994 298.618 91.4019C298.41 95.6814 298.301 100.485 298.443 105.388Z" fill="#212529"/>
<path d="M53.7385 255.579V259.391H85.5616C85.6013 258.123 85.6444 256.852 85.6907 255.579H53.7385Z" fill="#F5173E"/>
<path d="M60.3416 192.669V196.482H91.5395C91.7935 195.187 92.0582 193.917 92.3334 192.669H60.3416Z" fill="#F5173E"/>
<path d="M60.3417 263.709C60.189 263.709 60.0426 263.769 59.9347 263.877C59.8268 263.985 59.7661 264.132 59.7661 264.285C59.7661 264.437 59.8268 264.584 59.9347 264.692C60.0426 264.8 60.189 264.86 60.3417 264.86H85.4128C85.4128 264.477 85.4306 264.094 85.4406 263.709H60.3417Z" fill="#212529"/>
<path d="M67.048 200.226C66.8953 200.226 66.7489 200.286 66.641 200.394C66.5331 200.502 66.4724 200.649 66.4724 200.801C66.4724 200.954 66.5331 201.101 66.641 201.209C66.7489 201.317 66.8953 201.377 67.048 201.377H90.6405C90.7079 200.99 90.7754 200.609 90.8389 200.226H67.048Z" fill="#212529"/>
<path d="M707.647 127.999H686.722V150.492H707.647V127.999Z" fill="#F5173E"/>
<path d="M685.571 127.421C685.571 127.345 685.585 127.27 685.614 127.201C685.643 127.131 685.686 127.067 685.739 127.014C685.793 126.96 685.856 126.918 685.926 126.889C685.996 126.86 686.071 126.845 686.146 126.845H707.647V120.564H677.733V150.49H685.571V127.421Z" fill="#F5173E"/>
<path d="M685.571 127.421V155.167C685.571 155.243 685.586 155.318 685.615 155.387C685.644 155.457 685.686 155.521 685.739 155.574C685.793 155.628 685.856 155.67 685.926 155.699C685.996 155.728 686.071 155.743 686.146 155.743H713.879C714.032 155.743 714.178 155.682 714.286 155.574C714.394 155.466 714.455 155.32 714.455 155.167V127.421C714.455 127.345 714.44 127.27 714.411 127.201C714.382 127.131 714.339 127.067 714.286 127.014C714.232 126.96 714.169 126.918 714.099 126.889C714.029 126.86 713.955 126.845 713.879 126.845H686.146C686.071 126.845 685.996 126.86 685.926 126.889C685.856 126.918 685.793 126.96 685.739 127.014C685.686 127.067 685.644 127.131 685.615 127.201C685.586 127.27 685.571 127.345 685.571 127.421ZM707.647 127.997H713.303V154.591H686.722V127.997H707.647Z" fill="#212529"/>
<path d="M500.548 40.1476C494.215 42.332 490.625 46.7167 489.859 53.2064C489.698 57.045 493.431 59.7597 496.301 61.2729C497.438 55.3694 498.938 49.5418 500.793 43.8234C501.11 42.8352 501.487 41.867 501.92 40.924C501.446 40.6798 500.991 40.4196 500.548 40.1476Z" fill="#212529"/>
<path d="M496.305 61.2729C493.429 59.7577 489.702 57.045 489.863 53.2064C490.621 46.7167 494.219 42.332 500.552 40.1476C500.142 39.8974 499.743 39.6392 499.362 39.3671C493.157 41.7918 489.488 46.4983 488.721 53.0932C488.721 53.1071 488.721 53.119 488.721 53.1329C488.509 57.7977 492.933 60.8777 496.101 62.4664C496.158 62.0771 496.226 61.678 496.305 61.2729Z" fill="#212529"/>
<path d="M237.868 224.542C236.776 211.261 235.78 202.116 235.754 201.882C235.742 201.805 235.746 201.727 235.766 201.652C235.785 201.577 235.819 201.506 235.867 201.445C235.914 201.383 235.973 201.332 236.04 201.294C236.108 201.256 236.182 201.232 236.26 201.223C236.337 201.215 236.414 201.222 236.489 201.244C236.563 201.266 236.632 201.303 236.691 201.353C236.751 201.403 236.8 201.464 236.835 201.533C236.871 201.602 236.892 201.677 236.897 201.755C236.923 201.977 237.824 210.244 238.85 222.465C248.103 203.236 260.003 187.955 274.313 176.948C264.167 157.336 246.077 140.758 226.991 133.619C222.184 131.831 217.592 130.328 213.182 129.085C212.914 137.65 204.737 154.573 198.642 162.896C198.588 162.969 198.518 163.028 198.437 163.069C198.357 163.11 198.268 163.132 198.177 163.132C198.147 163.135 198.117 163.135 198.088 163.132L174.059 159.401C173.592 159.728 173.12 160.03 172.634 160.306C172.547 160.355 172.449 160.381 172.35 160.382C172.23 160.382 172.114 160.344 172.016 160.275C171.764 160.096 171.518 159.911 171.278 159.724C167.049 159.661 156.778 160.048 148.394 164.709C148.309 164.757 148.212 164.782 148.114 164.782C148.024 164.782 147.935 164.76 147.854 164.719C147.77 164.676 147.698 164.613 147.643 164.536C147.589 164.459 147.555 164.37 147.543 164.276C145.465 147.424 151.357 131.808 153.824 126.184C152.139 126.486 150.476 126.804 148.837 127.139C124.786 132.04 107.63 158.561 101.37 169.735C93.9769 182.931 89.2453 208.522 87.3062 245.792C85.7185 276.333 86.4488 307.286 87.0462 323.371H114.37C113.838 268.165 121.477 208.775 121.555 208.179C121.563 208.103 121.586 208.029 121.624 207.962C121.661 207.895 121.711 207.836 121.771 207.788C121.831 207.741 121.9 207.706 121.974 207.686C122.048 207.666 122.125 207.66 122.201 207.67C122.277 207.68 122.351 207.705 122.417 207.744C122.483 207.782 122.541 207.834 122.587 207.895C122.633 207.956 122.666 208.026 122.685 208.1C122.704 208.175 122.707 208.252 122.696 208.328C122.619 208.923 114.989 268.234 115.521 323.371H215.02C218.076 286.832 224.719 255.964 234.774 231.606C235.766 229.195 236.797 226.84 237.868 224.542ZM188.523 289.354L170.514 316.871C170.463 316.951 170.392 317.016 170.31 317.061C170.227 317.107 170.134 317.131 170.04 317.131C169.946 317.131 169.855 317.109 169.772 317.065C169.69 317.022 169.619 316.96 169.565 316.883L149.158 287.316C149.075 287.194 149.041 287.045 149.063 286.899L167.213 172.617C167.236 172.473 167.312 172.342 167.426 172.253C167.541 172.163 167.686 172.121 167.831 172.134L170.212 172.333L164.748 169.072C164.658 169.018 164.585 168.941 164.536 168.849C164.486 168.756 164.463 168.652 164.468 168.548L164.822 161.841C164.831 161.691 164.899 161.55 165.01 161.449C165.121 161.347 165.267 161.292 165.417 161.295L178.655 161.794C178.796 161.799 178.93 161.856 179.031 161.953C179.133 162.05 179.196 162.182 179.207 162.322L179.711 168.508C179.721 168.63 179.692 168.751 179.628 168.856C179.564 168.96 179.469 169.041 179.356 169.088L171.298 172.424L175.069 172.742C175.202 172.753 175.326 172.81 175.422 172.903C175.517 172.996 175.578 173.119 175.593 173.252L188.603 288.972C188.622 289.105 188.594 289.24 188.523 289.354Z" fill="white"/>
<path d="M87.0542 323.365C86.4588 307.28 85.7245 276.327 87.3142 245.786C89.2533 208.514 93.9849 182.923 101.378 169.729C107.638 158.555 124.798 132.034 148.845 127.133C150.484 126.797 152.147 126.478 153.832 126.178C154.055 125.671 154.251 125.242 154.41 124.905C152.448 125.246 150.516 125.613 148.615 126.003C139.213 127.917 129.924 133.229 120.993 141.79C113.493 148.987 106.358 158.452 100.352 169.159C97.0215 175.103 94.3977 183.207 92.3197 192.665C92.0458 193.914 91.7812 195.185 91.5258 196.478C91.2857 197.705 91.0535 198.957 90.8312 200.222C90.7617 200.605 90.6942 200.986 90.6327 201.373C87.8342 217.657 86.3675 236.797 85.6828 255.587C85.6365 256.859 85.5935 258.13 85.5538 259.399C85.5101 260.841 85.4697 262.279 85.4327 263.713C85.4327 264.098 85.4129 264.481 85.4049 264.864C85.1509 275.518 85.1251 285.87 85.2223 295.321C85.3335 306.178 85.6074 315.833 85.8872 323.369L87.0542 323.365Z" fill="#212529"/>
<path d="M213.182 129.081C217.592 130.324 222.184 131.818 226.991 133.615C246.077 140.764 264.167 157.332 274.313 176.944C274.442 176.844 274.569 176.745 274.698 176.644L275.242 176.247C265.716 157.915 249.308 142.225 231.606 134.284C230.217 133.658 228.804 133.075 227.394 132.546C222.433 130.692 217.701 129.151 213.16 127.882C213.187 128.281 213.194 128.681 213.182 129.081Z" fill="#212529"/>
<path d="M236.262 201.246C236.187 201.254 236.114 201.277 236.048 201.314C235.982 201.35 235.923 201.399 235.876 201.458C235.829 201.517 235.794 201.585 235.773 201.658C235.752 201.73 235.745 201.807 235.754 201.882C235.78 202.116 236.776 211.261 237.868 224.542C238.192 223.844 238.523 223.152 238.86 222.465C237.834 210.244 236.933 201.977 236.907 201.755C236.899 201.678 236.876 201.605 236.839 201.538C236.802 201.471 236.752 201.412 236.692 201.364C236.631 201.317 236.563 201.282 236.489 201.262C236.415 201.242 236.338 201.236 236.262 201.246Z" fill="#212529"/>
<path d="M617.268 161.468C600.247 143.572 580.071 131.482 558.534 125.965L566.152 129.54C566.229 129.576 566.297 129.628 566.351 129.693C566.405 129.759 566.444 129.835 566.465 129.917C569.839 143.091 564.679 153.151 549.726 162.505C549.634 162.561 549.528 162.591 549.421 162.592C549.339 162.591 549.258 162.573 549.184 162.539C549.11 162.505 549.043 162.455 548.99 162.393L532.046 143.282L508.561 164.608C508.455 164.704 508.317 164.758 508.174 164.759C508.121 164.758 508.068 164.751 508.017 164.737C507.923 164.709 507.837 164.659 507.768 164.589C507.698 164.52 507.647 164.434 507.62 164.34C507.279 163.16 499.88 137.332 503.919 126.152C480.646 132.384 459.737 146.525 443.607 167.291C442.1 169.229 440.536 173.844 438.976 180.312C453.778 194.212 466.119 214.45 475.795 240.75C486.711 270.429 492.004 301.958 494.531 323.361H606.96C608.857 314.663 609.486 302.065 608.883 284.868C603.796 257.016 595.837 242.027 595.758 241.878C595.722 241.812 595.7 241.739 595.692 241.663C595.684 241.588 595.692 241.512 595.713 241.44C595.735 241.367 595.771 241.3 595.819 241.241C595.867 241.182 595.926 241.134 595.992 241.098C596.059 241.062 596.132 241.04 596.207 241.032C596.282 241.024 596.358 241.032 596.431 241.053C596.503 241.075 596.57 241.111 596.629 241.159C596.688 241.207 596.736 241.266 596.772 241.332C596.852 241.481 604.91 256.623 610.024 284.703C610.553 287.586 611.03 290.511 611.455 293.476C611.489 293.707 611.529 293.931 611.56 294.161C611.592 294.392 611.628 294.68 611.664 294.936C612.967 304.363 613.784 313.85 614.111 323.361H653.186C653.027 320.396 652.878 316.887 652.708 312.866C651.066 274.095 647.647 193.408 617.268 161.468ZM523.107 157.894L529.186 151.612C529.24 151.557 529.304 151.513 529.375 151.483C529.446 151.453 529.522 151.438 529.599 151.438H534.88C534.963 151.437 535.044 151.455 535.119 151.489C535.194 151.524 535.261 151.574 535.315 151.636L541.293 158.515C541.366 158.599 541.413 158.702 541.429 158.812C541.445 158.922 541.429 159.034 541.382 159.135L537.695 167.11C537.648 167.209 537.575 167.293 537.482 167.353C537.39 167.412 537.282 167.443 537.173 167.443H527.207C527.095 167.443 526.985 167.411 526.891 167.349C526.796 167.287 526.722 167.199 526.678 167.096L522.992 158.521C522.947 158.419 522.933 158.305 522.952 158.195C522.971 158.085 523.022 157.983 523.099 157.901L523.107 157.894ZM552.493 268.983L527.882 304.275C527.829 304.351 527.758 304.413 527.676 304.456C527.594 304.499 527.503 304.521 527.41 304.521H527.384C527.287 304.517 527.193 304.489 527.111 304.438C527.028 304.388 526.96 304.318 526.912 304.234L506.681 268.941C506.614 268.821 506.591 268.68 506.618 268.544L526.846 171.344C526.873 171.214 526.944 171.098 527.047 171.014C527.15 170.931 527.278 170.885 527.41 170.885H537.075C537.213 170.885 537.346 170.934 537.451 171.024C537.555 171.113 537.624 171.237 537.645 171.373L552.592 268.574C552.614 268.721 552.579 268.87 552.493 268.991V268.983Z" fill="white"/>
<path d="M514.944 122.663C514.219 122.774 513.497 122.895 512.774 123.02L514.906 122.869C514.918 122.802 514.932 122.726 514.944 122.663Z" fill="#212529"/>
<path d="M553.033 123.568L552.914 123.545C552.914 123.572 552.914 123.598 552.914 123.626C552.951 123.602 552.991 123.583 553.033 123.568Z" fill="#212529"/>
<path d="M442.696 166.59C441.108 168.635 439.52 173.294 438.014 179.434C438.335 179.728 438.657 180.018 438.976 180.318C440.536 173.844 442.1 169.235 443.607 167.296C459.737 146.531 480.646 132.389 503.919 126.158C504.082 125.697 504.275 125.247 504.498 124.812C498.268 126.424 492.196 128.595 486.356 131.297C469.779 138.957 454.884 150.899 442.696 166.59Z" fill="#212529"/>
<path d="M558.534 125.965C580.071 131.482 600.247 143.572 617.268 161.468C647.647 193.408 651.066 274.095 652.708 312.87C652.878 316.891 653.027 320.4 653.186 323.365H654.339C654.18 320.386 654.03 316.871 653.859 312.822C653.327 300.27 652.608 283.337 650.85 265.079C647.833 233.736 641.754 198.48 628.286 174.723C627.546 173.417 626.783 172.146 625.997 170.911C624.212 168.087 622.227 165.396 620.057 162.856C619.416 162.111 618.769 161.381 618.102 160.672C617.576 160.118 617.04 159.578 616.514 159.033C603.996 146.28 589.812 136.546 574.309 130.1C567.664 127.326 560.772 125.185 553.725 123.705L558.534 125.965Z" fill="#212529"/>
<path d="M422.608 169.435C417.124 166.228 411.261 163.721 405.155 161.972C403.765 162.556 399.25 167.148 384.948 192.894C376.94 207.313 369.467 221.871 368.534 223.714L372.139 237.561C372.17 237.68 372.163 237.806 372.117 237.921L338.654 322.259C338.648 322.271 338.642 322.282 338.634 322.293C338.624 322.314 338.612 322.335 338.599 322.354C338.577 322.389 338.552 322.421 338.523 322.45C338.508 322.466 338.491 322.481 338.474 322.495C338.44 322.521 338.403 322.543 338.364 322.561L338.309 322.589C338.245 322.611 338.178 322.622 338.11 322.622H332.279C332.219 322.622 332.16 322.612 332.103 322.593H332.081C332.029 322.573 331.98 322.545 331.936 322.511L331.914 322.495C331.871 322.46 331.833 322.419 331.803 322.372L331.789 322.35C331.759 322.3 331.736 322.246 331.722 322.189L310.866 232.017C310.848 231.941 310.846 231.862 310.86 231.785C310.873 231.708 310.903 231.635 310.945 231.57L317.705 221.271L312.071 159.744C298.323 163.45 286.122 169.393 275.405 177.563C241.621 203.292 222.246 250.989 216.183 323.365H262.738C262.582 319.119 262.075 293.365 271.533 267.917C271.54 267.904 271.548 267.891 271.557 267.879C273.938 247.484 277.858 232.015 277.931 231.737C277.948 231.661 277.979 231.589 278.024 231.525C278.068 231.461 278.125 231.407 278.191 231.367C278.258 231.326 278.331 231.298 278.408 231.287C278.485 231.275 278.563 231.279 278.639 231.299C278.714 231.318 278.784 231.353 278.846 231.4C278.907 231.447 278.959 231.507 278.997 231.575C279.035 231.643 279.059 231.717 279.067 231.795C279.075 231.872 279.068 231.95 279.045 232.025C278.971 232.313 274.899 248.384 272.547 269.325C272.092 274.784 270.3 298.582 271.971 315.69C272.284 318.291 272.672 320.852 273.136 323.371H410.432C411.4 323.311 413.673 322.924 416.12 320.74C419.157 318.029 423.085 311.946 424.553 298.363C425.774 287.058 421.046 265.327 416.041 242.321C416.006 242.177 416.027 242.025 416.101 241.897C416.175 241.768 416.296 241.674 416.438 241.632C416.58 241.59 416.733 241.605 416.864 241.673C416.996 241.741 417.096 241.857 417.144 241.998C417.269 242.335 429.704 276.213 430.871 323.371H493.39C490.865 302.035 485.586 270.669 474.733 241.157C461.876 206.251 444.345 182.121 422.608 169.435Z" fill="white"/>
<path d="M438.976 180.316C438.656 180.016 438.335 179.72 438.013 179.432C433.476 175.252 428.506 171.567 423.19 168.438C417.735 165.249 411.91 162.74 405.845 160.968C405.912 161.049 405.954 161.148 405.968 161.252C405.982 161.357 405.967 161.463 405.924 161.559C405.881 161.656 405.813 161.738 405.726 161.798C405.639 161.857 405.537 161.892 405.432 161.897C405.336 161.905 405.242 161.93 405.154 161.97C411.261 163.719 417.124 166.226 422.608 169.433C444.345 182.119 461.876 206.249 474.713 241.154C485.568 270.661 490.847 302.027 493.369 323.367H494.529C492.002 301.966 486.709 270.437 475.793 240.756C466.119 214.456 453.778 194.216 438.976 180.316Z" fill="#212529"/>
<path d="M275.405 177.563C286.14 169.388 298.332 163.45 312.089 159.732L311.981 158.567C298.235 162.256 286.027 168.144 275.252 176.241L274.708 176.638C274.579 176.735 274.452 176.836 274.323 176.938C260.013 187.945 248.113 203.226 238.86 222.455C238.529 223.142 238.199 223.834 237.868 224.532C236.8 226.832 235.769 229.184 234.774 231.59C224.719 255.948 218.076 286.82 215.02 323.355H216.173C222.236 250.989 241.611 203.292 275.405 177.563Z" fill="#212529"/>
<path d="M340.236 273.088C342.245 242.565 351.281 212.605 358.892 192.046C358.247 192.058 357.604 192.064 356.959 192.066H356.41C356.104 192.066 355.798 192.066 355.495 192.066H355.05L354.22 192.05L353.736 192.036L352.942 192.01L352.424 191.99C352.172 191.978 351.92 191.968 351.67 191.955L351.132 191.927L350.398 191.883L349.846 191.845L349.124 191.794L348.564 191.748L347.847 191.684L347.284 191.631L346.573 191.557L346.006 191.494L345.295 191.41L344.726 191.339L344.015 191.242L343.449 191.162L342.729 191.053L342.171 190.964L341.441 190.84L340.891 190.745L340.135 190.602L339.615 190.503C339.333 190.447 339.053 190.388 338.773 190.328L338.337 190.239C337.91 190.145 337.483 190.04 337.058 189.949C336.525 189.804 335.995 189.645 335.471 189.476C335.294 189.421 335.119 189.357 334.945 189.297C335.897 227.018 336.544 285.356 332.924 321.49H337.489C337.239 317.983 336.253 300.208 340.236 273.088Z" fill="#212529"/>
<path d="M337.547 322.104C337.547 322.086 337.525 321.872 337.495 321.473H332.93C332.908 321.685 332.889 321.897 332.867 322.108C332.852 322.244 332.791 322.37 332.692 322.465C332.594 322.559 332.465 322.616 332.329 322.624H338.122C338.096 322.626 338.069 322.626 338.043 322.624C337.913 322.607 337.793 322.547 337.703 322.452C337.613 322.357 337.557 322.234 337.547 322.104Z" fill="#212529"/>
<path d="M337.07 189.933C336.536 189.788 336.006 189.629 335.482 189.46C336.006 189.629 336.534 189.788 337.07 189.933Z" fill="#212529"/>
<path d="M358.897 192.046C358.251 192.046 357.606 192.068 356.961 192.07C357.608 192.064 358.251 192.058 358.897 192.046Z" fill="#212529"/>
<path d="M306.684 90.6672L306.936 91.9659C309.725 106.462 316.133 117.333 324.519 121.775C328.51 123.89 332.676 124.293 335.949 122.883H335.973L336.012 122.867C342.064 121.064 345.114 119.394 345.142 119.378C345.208 119.339 345.282 119.313 345.358 119.302C345.435 119.291 345.513 119.296 345.587 119.316C345.662 119.336 345.732 119.371 345.793 119.419C345.853 119.466 345.904 119.525 345.941 119.593C345.979 119.661 346.002 119.735 346.01 119.812C346.019 119.889 346.011 119.966 345.989 120.04C345.966 120.114 345.929 120.183 345.879 120.242C345.83 120.301 345.769 120.35 345.7 120.385C345.577 120.455 342.649 122.055 336.733 123.85C336.608 126.778 336.594 129.125 336.582 131.397C336.552 137.592 336.524 142.944 334.109 156.779C334.101 156.827 334.087 156.874 334.067 156.919C334.03 157 333.982 157.097 333.93 157.204C334.153 162.963 334.552 174.011 334.913 188.06C335.719 188.34 336.528 188.602 337.35 188.827C344.694 190.553 351.991 191.051 359.325 190.896C359.502 190.425 359.678 189.953 359.853 189.492C364.251 177.824 369.24 166.388 374.802 155.229C374.405 153.688 373.839 151.366 373.214 148.171C366.714 151.368 359.321 152.311 352.896 152.311C348.249 152.298 343.612 151.847 339.049 150.965L338.896 150.935C338.811 150.919 338.731 150.884 338.662 150.833C338.593 150.782 338.536 150.715 338.495 150.639C338.455 150.563 338.432 150.479 338.429 150.392C338.425 150.306 338.441 150.22 338.475 150.141C338.684 149.648 359.257 100.658 354.222 84.0126C352.039 76.7802 347.647 74.5541 343.001 72.1969C336.921 69.1129 330.64 65.9277 328.28 52.007C317.959 59.9503 308.492 58.3457 304.066 56.8603C302.669 69.8854 304.977 81.8699 306.684 90.6672Z" fill="white"/>
<path d="M333.933 157.195C333.984 157.087 334.032 156.996 334.07 156.909C334.089 156.864 334.103 156.817 334.111 156.77C336.527 142.934 336.554 137.582 336.584 131.387C336.596 129.119 336.61 126.772 336.735 123.84L336.338 123.962C336.265 123.983 336.188 123.99 336.113 123.981C336.037 123.973 335.964 123.95 335.897 123.913C335.83 123.876 335.772 123.826 335.724 123.766C335.677 123.706 335.642 123.638 335.622 123.564C335.581 123.425 335.594 123.276 335.659 123.146C335.724 123.017 335.835 122.916 335.971 122.865H335.947C332.674 124.275 328.508 123.872 324.517 121.757C316.132 117.315 309.723 106.451 306.934 91.948L306.682 90.6493C304.981 81.852 302.667 69.8676 304.08 56.8286C303.662 56.6876 303.286 56.5486 302.963 56.4195C301.466 69.7246 303.822 81.9255 305.553 90.8677L305.803 92.1645C308.659 107.013 315.284 118.179 323.979 122.776C327.949 124.881 332.117 125.397 335.562 124.246C335.528 125.076 335.506 125.854 335.489 126.603C335.477 127.115 335.467 127.613 335.459 128.096C335.443 129.236 335.437 130.308 335.431 131.363C335.405 136.862 335.377 141.689 333.645 152.5C333.706 152.587 333.74 152.69 333.744 152.796C333.756 152.941 333.827 154.482 333.933 157.195Z" fill="#212529"/>
<path d="M335.483 189.46C336.007 189.629 336.536 189.788 337.07 189.933C337.495 190.034 337.922 190.132 338.348 190.223L338.785 190.312C339.065 190.372 339.345 190.431 339.627 190.487L340.147 190.586L340.903 190.729L341.453 190.825L342.183 190.948L342.741 191.037L343.461 191.146L344.027 191.226L344.737 191.323L345.307 191.395L346.017 191.478L346.585 191.541L347.296 191.615L347.859 191.669L348.576 191.732L349.135 191.778L349.858 191.829L350.41 191.867L351.144 191.911L351.682 191.939C351.932 191.953 352.184 191.962 352.436 191.974L352.954 191.994L353.748 192.02L354.232 192.034L355.062 192.05H355.506C355.81 192.05 356.116 192.05 356.421 192.05H356.971C357.616 192.05 358.261 192.036 358.906 192.026C359.049 191.637 359.192 191.252 359.335 190.87C352.001 191.025 344.694 190.527 337.36 188.801C336.538 188.577 335.729 188.314 334.923 188.034C334.935 188.442 334.945 188.851 334.955 189.262C335.131 189.341 335.306 189.405 335.483 189.46Z" fill="#212529"/>
<path d="M375.596 153.666C375.225 152.164 374.776 150.163 374.288 147.613C373.935 147.811 373.581 147.986 373.224 148.161C373.841 151.356 374.397 153.678 374.812 155.219C375.106 154.623 375.374 154.103 375.596 153.666Z" fill="#212529"/>
<path d="M202.103 122.979C201.742 117.152 202.053 108.283 203.038 96.4578C200.696 97.4091 198.143 98.124 195.77 98.124C194.449 98.15 193.139 97.8785 191.937 97.3296C188.575 95.7211 190.171 90.2005 192.016 83.8061C193.658 78.1187 195.52 71.6707 193.424 68.3921C192.646 67.1767 191.371 66.4499 189.528 66.1679C185.991 65.6298 183.431 66.2355 181.916 67.9691C178.854 71.48 180.878 78.5258 180.898 78.5953C180.921 78.6742 180.927 78.7572 180.915 78.8386C180.904 78.92 180.875 78.998 180.831 79.0674C180.787 79.1367 180.728 79.1958 180.659 79.2408C180.59 79.2858 180.513 79.3155 180.432 79.328C180.275 79.3519 176.573 79.8682 173.703 76.957C170.683 73.8928 169.811 68.3305 171.107 60.4209C171.195 59.8987 171.29 59.3446 171.389 58.7668C172.651 51.4331 174.565 40.3501 166.711 37.7328C164.21 36.8988 159.963 38.3146 155.851 39.6849C154.263 40.2151 152.655 40.7493 151.087 41.1802C149.725 43.4059 148.733 45.8376 148.148 48.3808C145.332 60.4487 144.28 71.633 145.099 80.7281C145.893 89.4955 148.368 95.9475 152.262 99.3949C155.694 102.427 160.048 103.001 165.209 101.099C165.23 101.094 165.252 101.09 165.274 101.087C165.295 101.079 165.316 101.072 165.338 101.067L175.184 99.8755C175.28 99.8637 175.378 99.8766 175.468 99.9129C175.559 99.9492 175.638 100.008 175.699 100.083C175.761 100.158 175.802 100.248 175.82 100.344C175.837 100.439 175.83 100.538 175.799 100.63C174.265 105.237 166.941 110.637 165.364 111.751C165.042 115.921 164.677 119.694 164.347 122.766C164.371 122.859 164.371 122.957 164.347 123.05C164.32 123.169 164.296 123.29 164.27 123.41C164.125 124.75 163.986 125.945 163.873 126.952C163.512 138.925 171.776 155.151 173.481 158.366C174.819 156.025 189.395 130.692 202.103 122.979Z" fill="white"/>
<path d="M164.226 122.528C164.288 122.596 164.333 122.678 164.357 122.766C164.687 119.704 165.052 115.923 165.373 111.751L165.084 111.949C164.988 112.015 164.874 112.051 164.758 112.051C164.642 112.051 164.528 112.016 164.432 111.95C164.337 111.883 164.264 111.789 164.224 111.679C163.913 115.738 163.557 119.414 163.232 122.421L163.71 122.347C163.804 122.332 163.901 122.341 163.991 122.373C164.081 122.404 164.162 122.457 164.226 122.528Z" fill="#212529"/>
<path d="M172.35 160.374C172.449 160.373 172.547 160.347 172.634 160.298C173.12 160.022 173.592 159.721 174.059 159.393L173.846 159.359C173.832 159.419 173.807 159.477 173.775 159.53C173.718 159.617 173.639 159.688 173.545 159.734C173.451 159.78 173.347 159.8 173.243 159.792C173.213 159.792 172.493 159.734 171.278 159.717C171.518 159.903 171.764 160.088 172.016 160.267C172.114 160.337 172.23 160.374 172.35 160.374Z" fill="#212529"/>
<path d="M164.843 101.597C164.852 101.475 164.899 101.36 164.979 101.267C165.058 101.174 165.165 101.11 165.284 101.083C165.262 101.086 165.24 101.09 165.219 101.095C160.058 102.997 155.704 102.423 152.272 99.3909C148.378 95.9475 145.901 89.4955 145.109 80.7241C144.29 71.629 145.342 60.4448 148.158 48.3769C148.743 45.8336 149.735 43.4019 151.097 41.1762C150.557 41.3272 150.023 41.4642 149.498 41.5833C148.385 43.6405 147.557 45.8389 147.034 48.1187C141.279 72.755 143.004 92.7304 151.51 100.249C155.041 103.371 159.618 104.127 164.784 102.459L164.843 101.597Z" fill="#212529"/>
<path d="M203.038 96.4579C202.045 108.293 201.742 117.152 202.103 122.979C202.476 122.752 202.845 122.54 203.214 122.345C203.184 121.775 203.161 121.164 203.145 120.506C202.99 114.632 203.359 106.407 204.238 95.9435C203.847 96.1163 203.444 96.293 203.038 96.4579Z" fill="#212529"/>
<path d="M164.286 123.414C164.05 124.58 163.917 125.766 163.889 126.956C164.002 125.949 164.141 124.754 164.286 123.414Z" fill="#212529"/>
<path d="M551.721 128.465C551.701 119.666 552.225 108.113 553.291 93.912C552.695 93.7001 552.121 93.4342 551.574 93.1177C545.778 89.8252 542.079 85.226 541.676 80.8055C541.444 78.2478 542.355 76.0256 544.314 74.3813C549.119 70.3481 551.624 65.4332 550.849 61.5548C550.385 59.2195 548.773 57.5574 546.191 56.7452C541.591 55.2975 538.822 61.8845 537.169 65.8184C536.464 67.4985 536.075 68.4 535.648 68.819C534.745 69.7166 533.83 70.0403 532.939 69.7822C530.732 69.1427 529.732 65.036 529.625 64.5693C529.595 64.4344 529.615 64.2931 529.682 64.1722C532.858 58.4133 531.27 44.8103 527.821 40.2945C525.657 37.4588 521.988 35.6318 517.752 35.2803C512.826 34.8831 507.809 36.5115 503.758 39.7981C502.996 41.1909 502.37 42.654 501.888 44.1669C490.837 78.8614 497.702 91.9798 502.777 96.71C507.309 100.936 513.277 101.327 517.298 99.8397C517.371 99.7313 517.48 99.6514 517.605 99.6133L527.241 96.7319C527.34 96.7021 527.445 96.6993 527.545 96.724C527.645 96.7487 527.737 96.7998 527.81 96.872C527.884 96.9443 527.937 97.035 527.964 97.1347C527.99 97.2345 527.989 97.3395 527.962 97.4389C527.249 99.9787 519.427 106.28 518.203 107.245C517.806 112.907 516.835 118.876 515.976 123.388C516.204 124.45 518.981 136.073 532.094 141.828C537.284 139.533 548.208 133.77 551.721 128.465Z" fill="white"/>
<path d="M515.358 122.838C515.5 122.828 515.64 122.87 515.752 122.957C515.864 123.044 515.94 123.169 515.966 123.308C515.966 123.308 515.966 123.348 515.982 123.394C516.841 118.882 517.808 112.912 518.209 107.251L518.133 107.312C518.031 107.393 517.905 107.437 517.776 107.438C517.689 107.437 517.603 107.417 517.524 107.38C517.427 107.332 517.345 107.258 517.287 107.166C517.23 107.074 517.2 106.968 517.2 106.86V104.655C516.968 110.742 515.906 117.563 514.95 122.661C514.938 122.73 514.924 122.8 514.912 122.86L515.358 122.838Z" fill="#212529"/>
<path d="M517.194 100.171C517.195 100.055 517.231 99.9413 517.298 99.8457C513.277 101.333 507.308 100.942 502.777 96.716C497.702 91.9858 490.837 78.8674 501.888 44.1729C502.37 42.6599 502.996 41.1969 503.758 39.804C503.361 40.1297 502.964 40.4693 502.567 40.8287C502.48 40.9095 502.371 40.9618 502.254 40.9785C502.137 40.9952 502.018 40.9755 501.912 40.9221C501.479 41.8651 501.102 42.8333 500.785 43.8214C498.93 49.5398 497.43 55.3674 496.293 61.2709C496.218 61.668 496.15 62.0652 496.081 62.4743C494.946 68.9699 494.553 74.7864 494.922 79.8523C495.501 87.7718 497.877 93.7293 501.983 97.558C506.689 101.945 512.844 102.497 517.186 101.099L517.194 100.171Z" fill="#212529"/>
<path d="M553.291 93.916C552.225 108.113 551.703 119.666 551.721 128.469C552.685 127.014 553.092 125.594 552.667 124.289C552.633 124.182 552.631 124.068 552.661 123.96C552.69 123.852 552.751 123.754 552.834 123.68C552.859 123.661 552.885 123.645 552.911 123.63C552.911 123.602 552.911 123.576 552.911 123.549C553.052 115.585 553.555 105.797 554.418 94.2397C554.035 94.1568 553.659 94.0487 553.291 93.916Z" fill="#212529"/>
<path d="M759.424 323.365H614.11C614.11 323.55 614.128 323.734 614.134 323.921C614.138 324.036 614.107 324.15 614.045 324.247C614.039 324.257 614.032 324.266 614.023 324.275C614.01 324.297 613.994 324.317 613.975 324.336C613.975 324.336 613.956 324.354 613.946 324.364C613.936 324.374 613.912 324.394 613.894 324.406L613.85 324.431C613.833 324.443 613.814 324.453 613.795 324.461C613.779 324.468 613.762 324.474 613.745 324.479C613.725 324.479 613.708 324.493 613.688 324.497H613.628C613.613 324.498 613.598 324.498 613.583 324.497H759.428C759.581 324.497 759.727 324.436 759.835 324.328C759.943 324.22 760.004 324.074 760.004 323.921C760.004 323.768 759.943 323.622 759.835 323.514C759.727 323.406 759.581 323.345 759.428 323.345L759.424 323.365Z" fill="#212529"/>
<path d="M114.374 323.947C114.374 323.748 114.374 323.55 114.374 323.365H27.8734C27.7208 323.365 27.5744 323.426 27.4664 323.534C27.3585 323.642 27.2979 323.788 27.2979 323.941C27.2979 324.094 27.3585 324.24 27.4664 324.348C27.5744 324.456 27.7208 324.517 27.8734 324.517H114.949C114.798 324.516 114.653 324.456 114.545 324.35C114.437 324.243 114.376 324.098 114.374 323.947Z" fill="#212529"/>
<path d="M606.855 323.812C606.888 323.665 606.92 323.514 606.952 323.365H430.861C430.861 323.552 430.873 323.738 430.877 323.927C430.879 324.004 430.865 324.081 430.838 324.153C430.81 324.225 430.768 324.29 430.714 324.346C430.66 324.401 430.596 324.446 430.525 324.476C430.454 324.506 430.378 324.522 430.301 324.523H607.424C607.338 324.523 607.252 324.503 607.174 324.466C607.096 324.428 607.027 324.374 606.973 324.306C606.919 324.238 606.881 324.159 606.862 324.074C606.843 323.99 606.843 323.902 606.862 323.818L606.855 323.812Z" fill="#212529"/>
<path d="M409.293 323.909C409.301 323.762 409.365 323.624 409.472 323.522C409.579 323.421 409.721 323.365 409.868 323.365H273.12C273.15 323.524 273.178 323.683 273.208 323.842C273.236 323.992 273.204 324.147 273.119 324.273C273.033 324.4 272.901 324.487 272.751 324.517H409.836H409.801C409.654 324.5 409.52 324.427 409.426 324.314C409.331 324.201 409.283 324.056 409.293 323.909Z" fill="#212529"/>
<path d="M262.756 323.975C262.756 323.951 262.742 323.74 262.728 323.365H115.521C115.521 323.564 115.521 323.744 115.521 323.933C115.522 324.009 115.508 324.084 115.48 324.154C115.452 324.225 115.41 324.289 115.357 324.343C115.304 324.397 115.241 324.441 115.172 324.47C115.102 324.5 115.027 324.516 114.951 324.517H263.326C263.18 324.516 263.039 324.459 262.933 324.359C262.828 324.258 262.764 324.121 262.756 323.975Z" fill="#212529"/>
<path d="M301.603 42.2843C300.611 48.6132 301.919 53.7505 302.232 54.8447C303.856 55.6748 315.443 60.977 328.349 50.4759C328.428 50.4122 328.522 50.3704 328.622 50.3548C328.723 50.3392 328.825 50.3502 328.919 50.3869C329.014 50.4236 329.097 50.4845 329.16 50.5636C329.224 50.6427 329.265 50.7371 329.28 50.8373C331.42 64.9963 337.582 68.1141 343.542 71.1464C348.199 73.5096 353.016 75.9521 355.344 83.6572C360.238 99.8397 342.395 143.752 339.831 149.918C344.152 150.72 348.536 151.13 352.93 151.144C364.327 151.144 378.756 148.141 385.383 134.479C394.486 116.443 397.559 93.3361 393.81 71.0809C390.017 48.5755 379.784 30.8499 365.728 22.4518C352.101 14.3099 342.568 19.062 336.969 24.4853C336.907 24.5445 336.833 24.5893 336.752 24.6163C336.671 24.6434 336.585 24.6521 336.5 24.6419C336.415 24.6316 336.334 24.6026 336.261 24.557C336.189 24.5114 336.128 24.4503 336.082 24.3781C331.245 16.6631 323.008 17.4277 318.652 19.8107C308.83 25.2221 303.096 32.7682 301.603 42.2843Z" fill="#212529"/>
<path d="M301.194 55.4186C301.206 55.4476 301.221 55.4755 301.238 55.502C301.285 55.5984 301.359 55.6796 301.45 55.7364C301.94 56.0021 302.445 56.2362 302.965 56.4374C303.288 56.5664 303.663 56.7055 304.082 56.8465C308.502 58.3319 317.959 59.9404 328.296 51.9931C330.655 65.9138 336.937 69.099 343.016 72.183C347.663 74.5402 352.051 76.7663 354.238 83.9987C359.273 100.652 338.7 149.642 338.491 150.127C338.457 150.206 338.441 150.292 338.444 150.378C338.448 150.465 338.471 150.549 338.511 150.625C338.551 150.701 338.608 150.768 338.678 150.819C338.747 150.87 338.827 150.905 338.912 150.921L339.065 150.951C343.628 151.833 348.264 152.284 352.912 152.297C359.341 152.297 366.73 151.354 373.23 148.157C373.587 147.982 373.94 147.798 374.294 147.609C379.578 144.811 383.823 140.386 386.401 134.989C390.85 126.172 393.873 116.157 395.385 105.626C397.02 94.088 396.868 82.3663 394.933 70.8744C391.085 48.0373 380.643 30.0218 366.307 21.449C352.454 13.1701 342.608 17.6759 336.661 23.1667C331.898 16.2163 323.788 15.6603 318.084 18.7979C305.436 25.7483 301.514 35.3319 300.45 42.1414C300.128 44.2172 300.009 46.3197 300.097 48.4186C300.259 52.5253 301.141 55.2558 301.194 55.4186ZM336.068 24.3781C336.114 24.4503 336.175 24.5114 336.247 24.557C336.32 24.6026 336.401 24.6316 336.486 24.6419C336.571 24.6521 336.657 24.6434 336.738 24.6164C336.819 24.5893 336.893 24.5445 336.955 24.4853C342.554 19.062 352.087 14.3079 365.714 22.4518C379.77 30.8499 390.003 48.5755 393.796 71.0809C397.545 93.3361 394.472 116.443 385.368 134.479C378.741 148.141 364.313 151.144 352.916 151.144C348.522 151.13 344.138 150.72 339.817 149.918C342.381 143.762 360.224 99.8397 355.33 83.6572C353.002 75.9541 348.185 73.5116 343.528 71.1464C337.574 68.124 331.406 64.9903 329.266 50.8373C329.251 50.7371 329.21 50.6427 329.146 50.5636C329.083 50.4845 329 50.4236 328.905 50.3869C328.811 50.3503 328.708 50.3392 328.608 50.3548C328.508 50.3704 328.414 50.4122 328.335 50.4759C315.435 60.9671 303.842 55.6649 302.218 54.8447C301.905 53.7505 300.591 48.6132 301.589 42.2843C303.092 32.7722 308.825 25.2062 318.634 19.8206C322.994 17.4257 331.231 16.6631 336.068 24.3781Z" fill="#212529"/>
<path d="M420.018 255.39C424.321 275.818 426.649 289.576 425.686 298.483C424.468 309.758 421.473 317.562 416.783 321.675C416.044 322.33 415.232 322.897 414.364 323.365H429.711C428.975 293.744 423.783 269.406 420.018 255.39Z" fill="#212529"/>
<path d="M430.877 323.927C430.877 323.738 430.867 323.552 430.861 323.365C429.694 276.207 417.259 242.329 417.134 241.992C417.086 241.851 416.986 241.735 416.854 241.667C416.723 241.599 416.57 241.584 416.428 241.626C416.286 241.668 416.165 241.762 416.091 241.891C416.017 242.019 415.996 242.171 416.031 242.315C421.036 265.321 425.756 287.052 424.543 298.357C423.075 311.94 419.147 318.017 416.11 320.734C413.663 322.918 411.39 323.315 410.422 323.365H409.868C409.722 323.366 409.582 323.424 409.476 323.525C409.37 323.626 409.307 323.764 409.299 323.91C409.291 324.056 409.339 324.2 409.434 324.312C409.528 324.424 409.661 324.496 409.807 324.513H409.842C409.896 324.513 410.001 324.513 410.154 324.513C410.253 324.513 410.374 324.513 410.511 324.513H430.301C430.378 324.512 430.454 324.496 430.525 324.466C430.596 324.436 430.66 324.391 430.714 324.336C430.767 324.28 430.81 324.215 430.837 324.143C430.865 324.071 430.879 323.994 430.877 323.917V323.927ZM423.396 323.365H414.364C415.232 322.897 416.044 322.33 416.783 321.675C421.473 317.562 424.468 309.76 425.686 298.483C426.649 289.576 424.321 275.818 420.018 255.39C423.789 269.406 428.975 293.744 429.711 323.365H423.396Z" fill="#212529"/>
<path d="M278.622 231.318C278.475 231.28 278.318 231.302 278.186 231.379C278.055 231.457 277.96 231.583 277.922 231.731C277.848 232.015 273.926 247.484 271.547 267.873C271.6 267.753 271.694 267.656 271.811 267.597C271.928 267.538 272.062 267.521 272.19 267.549C272.326 267.581 272.446 267.66 272.528 267.774C272.61 267.887 272.648 268.026 272.636 268.165C272.636 268.203 272.595 268.606 272.537 269.313C274.889 248.372 278.962 232.301 279.035 232.013C279.071 231.866 279.048 231.711 278.971 231.581C278.894 231.45 278.768 231.356 278.622 231.318Z" fill="#212529"/>
<path d="M273.222 323.842C273.192 323.683 273.164 323.524 273.134 323.365C272.666 320.85 272.278 318.289 271.969 315.684C272.215 318.418 272.612 321.136 273.16 323.826C273.178 323.91 273.177 323.997 273.157 324.08C273.137 324.164 273.099 324.242 273.045 324.309C272.991 324.376 272.922 324.43 272.845 324.467C272.767 324.504 272.682 324.523 272.596 324.523C272.616 324.524 272.636 324.524 272.656 324.523C272.692 324.526 272.729 324.526 272.765 324.523C272.84 324.508 272.911 324.479 272.975 324.437C273.038 324.395 273.093 324.341 273.135 324.277C273.177 324.214 273.207 324.143 273.222 324.068C273.237 323.993 273.237 323.916 273.222 323.842Z" fill="#212529"/>
<path d="M271.136 272.504C263.235 296.439 263.735 319.568 263.88 323.365H271.892C268.941 308.581 270.386 282.806 271.136 272.504Z" fill="#212529"/>
<path d="M273.047 324.302C273.101 324.235 273.139 324.157 273.159 324.074C273.179 323.991 273.18 323.904 273.162 323.82C272.614 321.13 272.217 318.412 271.971 315.678C270.3 298.57 272.092 274.77 272.547 269.313C272.604 268.606 272.642 268.202 272.646 268.165C272.658 268.026 272.62 267.887 272.538 267.773C272.456 267.66 272.336 267.581 272.2 267.549C272.071 267.521 271.938 267.538 271.821 267.597C271.704 267.656 271.61 267.753 271.556 267.873C271.548 267.885 271.54 267.898 271.533 267.911C262.075 293.359 262.582 319.113 262.738 323.359C262.752 323.734 262.764 323.955 262.766 323.969C262.774 324.115 262.838 324.253 262.945 324.354C263.052 324.455 263.193 324.511 263.34 324.511H272.608C272.692 324.51 272.775 324.491 272.851 324.455C272.926 324.419 272.993 324.367 273.047 324.302ZM271.136 272.504C270.385 282.806 268.941 308.58 271.892 323.365H263.88C263.735 319.564 263.234 296.439 271.136 272.504Z" fill="#212529"/>
<path d="M360.925 189.909C353.159 210.419 343.459 241.515 341.383 273.185C341.384 273.2 341.384 273.215 341.383 273.231C337.9 296.918 338.225 313.428 338.531 319.461L370.981 237.67L367.369 223.793C367.334 223.657 367.349 223.512 367.413 223.386C367.492 223.231 375.409 207.698 383.946 192.334C397.029 168.78 401.927 162.826 404.019 161.293C394.492 156.833 379.913 153.549 377.257 152.977C375.953 155.439 368.6 169.638 360.925 189.909Z" fill="white"/>
<path d="M374.804 155.219C369.242 166.378 364.253 177.814 359.855 189.482C359.68 189.943 359.504 190.416 359.327 190.886C359.184 191.267 359.041 191.653 358.898 192.042C351.283 212.601 342.247 242.561 340.242 273.084C336.259 300.204 337.245 317.979 337.501 321.467C337.531 321.864 337.551 322.08 337.553 322.098C337.565 322.227 337.62 322.348 337.709 322.441C337.798 322.535 337.917 322.595 338.045 322.612C338.071 322.614 338.098 322.614 338.124 322.612C338.192 322.612 338.259 322.601 338.323 322.579L338.378 322.551C338.417 322.533 338.454 322.511 338.488 322.485C338.505 322.471 338.522 322.456 338.537 322.44C338.566 322.411 338.591 322.379 338.613 322.344C338.626 322.325 338.638 322.304 338.648 322.283C338.656 322.272 338.662 322.261 338.668 322.249L372.131 237.911C372.176 237.796 372.184 237.67 372.152 237.551L368.548 223.704C369.489 221.861 376.954 207.303 384.962 192.884C399.264 167.138 403.773 162.546 405.168 161.962C405.256 161.922 405.35 161.897 405.446 161.889C405.551 161.884 405.653 161.849 405.74 161.79C405.827 161.73 405.895 161.648 405.938 161.551C405.981 161.455 405.996 161.349 405.982 161.244C405.968 161.14 405.926 161.041 405.859 160.96C405.809 160.892 405.745 160.837 405.671 160.799C395.179 155.548 377.259 151.785 377.09 151.747C376.969 151.722 376.843 151.737 376.731 151.789C376.619 151.841 376.526 151.928 376.467 152.037C376.451 152.065 376.152 152.623 375.62 153.656C375.374 154.103 375.106 154.623 374.804 155.219ZM404.015 161.293C401.923 162.826 397.025 168.78 383.942 192.334C375.407 207.704 367.488 223.231 367.409 223.386C367.345 223.512 367.33 223.657 367.365 223.793L370.978 237.67L338.519 319.461C338.214 313.428 337.888 296.918 341.371 273.231C341.372 273.215 341.372 273.2 341.371 273.185C343.451 241.515 353.147 210.419 360.913 189.909C368.588 169.638 375.941 155.439 377.241 152.973C379.909 153.553 394.489 156.833 404.015 161.293Z" fill="#212529"/>
<path d="M318.87 221.355C318.882 221.485 318.85 221.615 318.779 221.724L312.043 231.985L332.047 318.482C337.076 263.365 332.98 161.988 332.621 153.433C319.379 153.91 314.163 156.436 312.986 157.107L318.87 221.355Z" fill="white"/>
<path d="M312.079 159.732L317.713 221.259L310.953 231.55C310.91 231.615 310.881 231.688 310.867 231.765C310.854 231.842 310.856 231.921 310.874 231.997L331.729 322.17C331.744 322.226 331.766 322.281 331.797 322.33L331.811 322.352C331.841 322.399 331.879 322.44 331.922 322.475L331.944 322.491C331.988 322.525 332.037 322.553 332.089 322.573H332.11C332.167 322.592 332.227 322.602 332.287 322.602H332.323C332.459 322.594 332.588 322.537 332.686 322.443C332.785 322.348 332.846 322.222 332.861 322.086C332.882 321.876 332.902 321.663 332.924 321.451C336.544 285.309 335.901 226.979 334.945 189.258C334.935 188.846 334.925 188.437 334.913 188.031C334.552 173.981 334.153 162.934 333.93 157.175C333.825 154.462 333.758 152.921 333.752 152.794C333.748 152.688 333.713 152.585 333.653 152.498C333.601 152.42 333.53 152.355 333.447 152.311C333.365 152.267 333.272 152.244 333.178 152.244H333.158C317.021 152.744 312.237 156.18 312.043 156.327C311.964 156.386 311.901 156.464 311.861 156.554C311.82 156.644 311.804 156.743 311.813 156.841L311.969 158.547L312.079 159.732ZM312.994 157.107C314.161 156.436 319.386 153.91 332.628 153.433C332.988 161.988 337.084 263.365 332.055 318.482L312.051 231.985L318.787 221.724C318.858 221.615 318.89 221.485 318.878 221.355L312.994 157.107Z" fill="#212529"/>
<path d="M174.511 173.852L168.267 173.325L150.236 286.852L170.02 315.523L187.446 288.897L174.511 173.852Z" fill="#212529"/>
<path d="M175.603 173.254C175.588 173.121 175.527 172.998 175.432 172.905C175.336 172.812 175.211 172.755 175.079 172.744L171.308 172.426L171.024 172.543C170.941 172.577 170.852 172.592 170.762 172.585C170.673 172.579 170.587 172.551 170.51 172.505L170.22 172.335L167.838 172.136C167.693 172.123 167.549 172.165 167.434 172.255C167.319 172.344 167.243 172.475 167.221 172.618L149.071 286.901C149.049 287.047 149.083 287.196 149.166 287.318L169.559 316.883C169.612 316.96 169.683 317.022 169.766 317.065C169.849 317.109 169.94 317.131 170.034 317.131C170.128 317.131 170.221 317.107 170.303 317.061C170.386 317.016 170.456 316.951 170.508 316.871L188.517 289.354C188.591 289.242 188.622 289.107 188.607 288.974L175.603 173.254ZM150.238 286.844L168.267 173.318L174.511 173.844L187.446 288.889L170.016 315.523L150.238 286.844Z" fill="#212529"/>
<path d="M115.525 323.933C115.525 323.744 115.525 323.554 115.525 323.365C114.989 268.228 122.619 208.912 122.696 208.316C122.707 208.24 122.704 208.163 122.685 208.088C122.666 208.014 122.633 207.944 122.587 207.883C122.541 207.822 122.483 207.77 122.417 207.732C122.351 207.693 122.277 207.668 122.201 207.658C122.125 207.648 122.048 207.654 121.974 207.674C121.901 207.694 121.831 207.729 121.771 207.777C121.711 207.824 121.661 207.883 121.624 207.95C121.586 208.017 121.563 208.091 121.555 208.167C121.477 208.763 113.838 268.139 114.37 323.359C114.37 323.558 114.37 323.756 114.37 323.941C114.372 324.092 114.434 324.237 114.541 324.344C114.649 324.45 114.794 324.51 114.946 324.511C115.022 324.511 115.097 324.497 115.168 324.468C115.238 324.439 115.302 324.397 115.356 324.343C115.41 324.289 115.452 324.225 115.482 324.155C115.511 324.084 115.525 324.009 115.525 323.933Z" fill="#212529"/>
<path d="M155.487 38.5907C159.973 37.0973 164.22 35.6854 167.074 36.6406C175.863 39.5697 173.773 51.7091 172.524 58.9613C172.425 59.5372 172.326 60.0893 172.244 60.6076C171.028 68.0147 171.812 73.3825 174.509 76.1348C176.295 77.9618 178.532 78.218 179.614 78.2219C179.147 76.2361 178.153 70.5288 181.049 67.2125C182.438 65.6238 184.492 64.8295 187.186 64.8295C188.028 64.8318 188.868 64.8982 189.7 65.0281C191.862 65.3577 193.439 66.2791 194.392 67.7685C196.774 71.486 194.916 77.9121 193.122 84.1238C191.492 89.7695 189.946 95.1015 192.433 96.289C198.487 99.1864 209.143 92.0096 210.627 90.973C211.123 88.8005 215.214 69.7087 213.406 39.9112C213.068 34.3668 211.135 30.133 207.497 26.9676C197.595 18.3491 177.26 19.9477 160.92 21.2305C152.927 21.86 145.983 22.4041 141.618 21.6416C139.183 31.2848 139.217 37.3555 141.717 39.6928C144.466 42.2645 150.069 40.3978 155.487 38.5907Z" fill="#212529"/>
<path d="M151.097 41.1802C152.655 40.7493 154.261 40.2151 155.861 39.6849C159.969 38.3147 164.22 36.9047 166.721 37.7328C174.569 40.3501 172.661 51.4351 171.399 58.7668C171.3 59.3446 171.201 59.8987 171.117 60.4209C169.821 68.3305 170.692 73.8928 173.713 76.957C176.583 79.8682 180.285 79.3519 180.441 79.3281C180.523 79.3155 180.6 79.2858 180.669 79.2408C180.738 79.1959 180.796 79.1367 180.841 79.0674C180.885 78.998 180.914 78.92 180.925 78.8386C180.937 78.7572 180.931 78.6742 180.908 78.5953C180.888 78.5258 178.864 71.48 181.926 67.9691C183.44 66.2355 186.001 65.6298 189.537 66.1679C191.381 66.4499 192.655 67.1768 193.434 68.3921C195.529 71.6707 193.668 78.1227 192.026 83.8061C190.181 90.2005 188.585 95.7211 191.947 97.3296C193.149 97.8785 194.459 98.15 195.779 98.124C198.161 98.124 200.706 97.4091 203.048 96.4578C203.444 96.293 203.857 96.1203 204.238 95.9435C206.775 94.7848 209.198 93.3927 211.477 91.7852C211.586 91.7053 211.664 91.5893 211.697 91.4575C211.745 91.2589 216.478 71.5654 214.553 39.8438C214.202 34.057 212.08 29.434 208.251 26.0998C197.984 17.1636 177.379 18.784 160.816 20.0847C152.574 20.7321 145.457 21.2921 141.301 20.4124C141.156 20.3816 141.004 20.4079 140.878 20.486C140.752 20.564 140.661 20.6878 140.624 20.8314C137.867 31.5112 137.96 37.7725 140.92 40.5368C142.958 42.4412 146.052 42.3737 149.488 41.5873C150.024 41.4682 150.565 41.3311 151.097 41.1802ZM141.715 39.6948C139.215 37.3575 139.181 31.2868 141.616 21.6436C145.983 22.4062 152.929 21.862 160.918 21.2325C177.258 19.9497 197.593 18.3511 207.495 26.9696C211.133 30.135 213.066 34.3688 213.404 39.9132C215.214 69.7007 211.123 88.8025 210.625 90.975C209.141 92.0116 198.485 99.1884 192.431 96.291C189.95 95.0995 191.49 89.7716 193.12 84.1258C194.906 77.9141 196.768 71.488 194.39 67.7705C193.437 66.2811 191.86 65.3597 189.698 65.0301C188.866 64.9002 188.026 64.8338 187.184 64.8315C184.49 64.8315 182.432 65.6258 181.047 67.2145C178.151 70.5308 179.145 76.2341 179.612 78.2239C178.53 78.2239 176.299 77.9638 174.507 76.1368C171.81 73.3845 171.026 68.0167 172.243 60.6096C172.328 60.0913 172.423 59.5392 172.522 58.9634C173.771 51.7111 175.861 39.5717 167.072 36.6426C164.208 35.6874 159.971 37.0993 155.485 38.5927C150.069 40.3978 144.466 42.2645 141.715 39.6948Z" fill="#212529"/>
<path d="M174.357 101.132L165.959 102.149L165.413 110.291C167.561 108.697 172.614 104.681 174.357 101.132Z" fill="#212529"/>
<path d="M164.472 111.983C164.559 112.033 164.658 112.059 164.758 112.059C164.874 112.059 164.988 112.023 165.084 111.957L165.373 111.759C166.951 110.635 174.275 105.235 175.809 100.638C175.84 100.546 175.847 100.447 175.83 100.352C175.812 100.256 175.771 100.166 175.709 100.091C175.648 100.016 175.568 99.9572 175.478 99.9208C175.388 99.8845 175.29 99.8717 175.194 99.8834L165.348 101.075C165.326 101.08 165.305 101.087 165.284 101.095C165.165 101.122 165.058 101.186 164.979 101.279C164.899 101.372 164.852 101.487 164.844 101.609L164.784 102.475L164.189 111.457C164.184 111.54 164.198 111.623 164.23 111.699C164.277 111.818 164.362 111.918 164.472 111.983ZM174.356 101.132C172.614 104.681 167.561 108.697 165.413 110.297L165.959 102.155L174.356 101.132Z" fill="#212529"/>
<path d="M502.089 39.7187C506.516 35.7112 512.236 33.6857 517.847 34.1583C522.412 34.5376 526.382 36.5274 528.735 39.6213C532.405 44.431 534.074 58.2584 530.798 64.5535C531.183 66.0746 532.135 68.3861 533.259 68.7118C533.723 68.8468 534.251 68.6185 534.846 68.0366C535.13 67.7546 535.63 66.5611 536.117 65.4074C537.921 61.112 540.942 53.9213 546.544 55.6768C549.51 56.6101 551.441 58.6297 551.987 61.3622C552.842 65.6516 550.188 70.9915 545.062 75.2948C544.263 75.9403 543.64 76.7769 543.25 77.7273C542.86 78.6777 542.716 79.7112 542.831 80.7321C543.192 84.7037 546.763 89.0725 552.149 92.1406C560.575 96.9285 567.858 85.7085 573.174 77.515L573.819 76.5221C576.712 72.0798 577.621 66.3308 576.313 60.7526C575.606 57.7175 574.285 54.8594 572.432 52.3544C570.579 49.8493 568.233 47.7503 565.538 46.1865C565.466 46.1443 565.404 46.0867 565.356 46.0179C565.309 45.9492 565.277 45.8708 565.262 45.7883C565.248 45.7058 565.252 45.6212 565.274 45.5404C565.296 45.4596 565.336 45.3846 565.389 45.3207C571.362 38.1995 572.378 28.308 567.862 21.2663C565.239 17.1735 560.745 14.2106 555.531 13.1403C549.619 11.9269 543.553 13.1641 538.463 16.6234C538.382 16.6783 538.288 16.7117 538.191 16.7204C538.093 16.7291 537.995 16.7128 537.906 16.6731C537.816 16.6333 537.739 16.5714 537.68 16.4933C537.621 16.4151 537.583 16.3232 537.57 16.2262C537.213 13.8008 536.356 11.4759 535.054 9.39916C533.752 7.32241 532.033 5.53907 530.006 4.16231C526.036 1.46554 521.207 0.526246 516.754 1.58072C512.491 2.59747 508.829 5.31409 506.433 9.22618C505.212 11.2114 504.399 13.4202 504.041 15.7234C503.684 18.0267 503.788 20.3782 504.349 22.6405C504.372 22.732 504.371 22.8277 504.348 22.919C504.325 23.0103 504.28 23.0946 504.216 23.1644C504.153 23.2342 504.074 23.2874 503.985 23.3193C503.896 23.3512 503.801 23.3609 503.708 23.3475C499.314 22.706 495.495 23.7029 494.211 25.8238C493.515 26.9716 493.417 28.6794 493.927 30.5103C494.916 34.067 497.964 37.4846 502.089 39.7187Z" fill="#212529"/>
<path d="M500.548 40.1476C500.991 40.4196 501.446 40.6798 501.916 40.9221C502.022 40.9755 502.141 40.9952 502.258 40.9785C502.375 40.9618 502.484 40.9095 502.571 40.8287C502.954 40.4693 503.351 40.1297 503.762 39.804C507.813 36.5175 512.83 34.8792 517.756 35.2863C521.991 35.6378 525.661 37.4707 527.825 40.3005C531.27 44.8163 532.87 58.4093 529.686 64.1781C529.619 64.2991 529.599 64.4403 529.629 64.5753C529.736 65.042 530.736 69.1427 532.943 69.7881C533.834 70.0463 534.749 69.7226 535.652 68.825C536.079 68.402 536.468 67.5044 537.173 65.8244C538.826 61.8904 541.595 55.2995 546.195 56.7511C548.775 57.5633 550.389 59.2255 550.853 61.5608C551.627 65.4391 549.123 70.3541 544.318 74.3873C542.359 76.0316 541.448 78.2537 541.68 80.8115C542.077 85.224 545.782 89.8232 551.578 93.1236C552.125 93.4402 552.699 93.7061 553.295 93.918C553.664 94.0494 554.041 94.1562 554.424 94.2377C555.011 94.3669 555.609 94.4335 556.21 94.4363C563.554 94.4363 569.774 84.8586 574.136 78.1365L574.779 77.1436C577.844 72.4372 578.81 66.3645 577.431 60.4825C576.715 57.4052 575.397 54.5001 573.554 51.9344C571.711 49.3688 569.378 47.1933 566.691 45.5332C572.604 38.0744 573.503 27.9288 568.829 20.6368C566.039 16.2838 561.273 13.1363 555.76 12.0043C549.827 10.7912 543.656 11.9304 538.546 15.1817C537.592 10.3011 534.751 5.99474 530.641 3.19917C526.405 0.321702 521.241 -0.679143 516.476 0.458739C511.911 1.54698 507.995 4.44828 505.447 8.62448C502.972 12.6516 502.115 17.468 503.049 22.1023C498.484 21.6257 494.684 22.8152 493.225 25.226C492.352 26.6658 492.207 28.6536 492.828 30.8201C493.725 33.9974 496.097 37.0596 499.368 39.3592C499.739 39.6392 500.138 39.8974 500.548 40.1476ZM494.197 25.8218C495.481 23.7009 499.3 22.704 503.694 23.3455C503.787 23.3589 503.883 23.3492 503.971 23.3173C504.06 23.2854 504.139 23.2322 504.203 23.1624C504.266 23.0926 504.311 23.0083 504.334 22.917C504.357 22.8257 504.358 22.73 504.335 22.6385C503.774 20.3762 503.67 18.0247 504.028 15.7214C504.385 13.4182 505.198 11.2094 506.419 9.22418C508.801 5.31209 512.467 2.59547 516.74 1.57873C521.194 0.516307 526.022 1.45561 529.992 4.16031C532.019 5.53708 533.738 7.32041 535.041 9.39717C536.343 11.4739 537.199 13.7988 537.556 16.2242C537.569 16.3212 537.607 16.4131 537.666 16.4913C537.725 16.5694 537.803 16.6313 537.892 16.6711C537.981 16.7108 538.079 16.7271 538.177 16.7184C538.274 16.7097 538.368 16.6763 538.449 16.6214C543.55 13.1621 549.615 11.9249 555.518 13.1383C560.731 14.2086 565.225 17.1715 567.849 21.2643C572.364 28.306 571.348 38.1975 565.376 45.3187C565.322 45.3826 565.282 45.4576 565.26 45.5384C565.238 45.6192 565.234 45.7038 565.249 45.7863C565.263 45.8688 565.295 45.9472 565.342 46.0159C565.39 46.0847 565.452 46.1423 565.524 46.1845C568.219 47.7483 570.565 49.8474 572.418 52.3524C574.271 54.8575 575.592 57.7155 576.3 60.7506C577.608 66.3288 576.697 72.0698 573.805 76.5201L573.16 77.513C567.845 85.7065 560.561 96.9265 552.136 92.1387C546.749 89.0785 543.178 84.7077 542.817 80.7301C542.702 79.7092 542.846 78.6757 543.236 77.7253C543.626 76.775 544.249 75.9383 545.048 75.2928C550.175 70.9895 552.828 65.6496 551.973 61.3602C551.427 58.6277 549.496 56.6081 546.531 55.6748C540.928 53.9153 537.907 61.106 536.103 65.4054C535.617 66.5591 535.111 67.7526 534.833 68.0346C534.237 68.6165 533.717 68.8448 533.245 68.7098C532.122 68.3841 531.169 66.0726 530.784 64.5515C534.061 58.2564 532.391 44.429 528.722 39.6194C526.362 36.5254 522.392 34.5356 517.833 34.1563C512.223 33.6936 506.503 35.7192 502.075 39.7167C497.95 37.4905 494.91 34.0729 493.906 30.5143C493.403 28.6774 493.507 26.9696 494.203 25.8178L494.197 25.8218Z" fill="#212529"/>
<path d="M518.345 100.6V105.66C521.178 103.353 524.742 100.187 526.209 98.2491L518.345 100.6Z" fill="#212529"/>
<path d="M517.518 107.38C517.597 107.417 517.683 107.437 517.77 107.438C517.9 107.437 518.025 107.393 518.127 107.312L518.203 107.251C519.419 106.286 527.249 99.9847 527.961 97.4448C527.989 97.3454 527.99 97.2404 527.963 97.1407C527.937 97.041 527.884 96.9503 527.81 96.878C527.737 96.8058 527.645 96.7546 527.545 96.73C527.445 96.7053 527.34 96.708 527.241 96.7379L517.605 99.6193C517.487 99.6559 517.384 99.7291 517.31 99.8283C517.236 99.9275 517.196 100.048 517.194 100.171V106.86C517.194 106.968 517.224 107.074 517.282 107.166C517.339 107.258 517.421 107.332 517.518 107.38ZM518.345 105.66V100.6L526.209 98.2491C524.742 100.187 521.178 103.353 518.345 105.66Z" fill="#212529"/>
<path d="M178.534 168.186L178.107 162.928L165.945 162.471L165.639 168.264L170.847 171.369L178.534 168.186Z" fill="#212529"/>
<path d="M170.81 172.587C170.885 172.587 170.96 172.572 171.03 172.543L171.314 172.426L179.372 169.09C179.485 169.043 179.58 168.962 179.644 168.858C179.708 168.753 179.737 168.632 179.727 168.51L179.223 162.324C179.211 162.184 179.149 162.052 179.047 161.955C178.946 161.858 178.812 161.801 178.671 161.796L165.433 161.297C165.283 161.294 165.137 161.349 165.026 161.451C164.915 161.552 164.847 161.693 164.838 161.843L164.484 168.55C164.479 168.654 164.502 168.758 164.552 168.851C164.601 168.943 164.674 169.02 164.764 169.074L170.214 172.335L170.504 172.505C170.596 172.561 170.702 172.59 170.81 172.587ZM165.957 162.471L178.118 162.928L178.544 168.184L170.857 171.361L165.649 168.262L165.957 162.471Z" fill="#212529"/>
<path d="M549.528 161.265C563.564 152.351 568.476 142.825 565.415 130.463L553.979 125.101C554.353 132.497 536.911 140.899 533.041 142.67L549.528 161.265Z" fill="white"/>
<path d="M552.834 123.676C552.751 123.75 552.69 123.848 552.661 123.956C552.631 124.064 552.634 124.178 552.667 124.285C553.092 125.59 552.685 127.01 551.721 128.465C548.208 133.77 537.284 139.533 532.094 141.834C532.169 141.868 532.241 141.904 532.318 141.935C532.406 141.974 532.484 142.033 532.543 142.109C532.603 142.185 532.642 142.275 532.658 142.37C532.674 142.465 532.665 142.562 532.634 142.653C532.602 142.744 532.548 142.826 532.477 142.891L532.046 143.288L548.99 162.399C549.043 162.461 549.11 162.511 549.184 162.545C549.258 162.579 549.339 162.597 549.42 162.598C549.528 162.597 549.634 162.567 549.726 162.511C564.673 153.147 569.835 143.097 566.465 129.923C566.444 129.841 566.405 129.765 566.351 129.699C566.296 129.634 566.228 129.582 566.152 129.546L558.534 125.971L553.717 123.713L553.459 123.592C553.325 123.531 553.172 123.525 553.033 123.574C552.99 123.589 552.95 123.608 552.912 123.632C552.885 123.645 552.859 123.659 552.834 123.676ZM553.979 125.101L565.415 130.463C568.476 142.825 563.564 152.351 549.528 161.265L533.04 142.67C536.907 140.899 554.353 132.497 553.979 125.109V125.101Z" fill="#212529"/>
<path d="M508.478 163.13L531.05 142.632C518.872 137.009 515.557 126.45 514.944 124.023L505.905 124.663C500.626 132.892 507.096 158.06 508.478 163.13Z" fill="white"/>
<path d="M503.918 126.158C499.878 137.346 507.279 163.166 507.62 164.345C507.647 164.44 507.698 164.526 507.767 164.595C507.837 164.665 507.923 164.715 508.017 164.743C508.068 164.757 508.121 164.764 508.174 164.764C508.317 164.764 508.455 164.71 508.561 164.614L532.046 143.288L532.477 142.891C532.548 142.826 532.602 142.744 532.634 142.653C532.665 142.562 532.673 142.465 532.658 142.37C532.642 142.275 532.602 142.185 532.543 142.109C532.484 142.033 532.406 141.974 532.318 141.935C532.24 141.904 532.169 141.868 532.094 141.834C518.981 136.075 516.204 124.456 515.976 123.394C515.976 123.348 515.96 123.314 515.96 123.308C515.934 123.169 515.858 123.044 515.746 122.957C515.634 122.87 515.494 122.827 515.352 122.838L514.906 122.869L512.774 123.02L505.542 123.533C505.456 123.539 505.373 123.564 505.298 123.607C505.223 123.649 505.158 123.708 505.109 123.779C504.882 124.109 504.678 124.454 504.498 124.812C504.275 125.247 504.082 125.697 503.918 126.158ZM514.944 124.023C515.557 126.45 518.871 137.009 531.05 142.632L508.477 163.13C507.088 158.06 500.626 132.892 505.897 124.663L514.944 124.023Z" fill="#212529"/>
<path d="M527.584 166.3H536.803L540.179 158.998L534.618 152.597H529.843L524.2 158.428L527.584 166.3Z" fill="#212529"/>
<path d="M526.671 167.104C526.716 167.207 526.79 167.295 526.885 167.357C526.979 167.419 527.089 167.451 527.201 167.451H537.167C537.276 167.451 537.384 167.42 537.476 167.36C537.569 167.301 537.642 167.217 537.689 167.118L541.376 159.143C541.423 159.042 541.439 158.93 541.423 158.82C541.407 158.71 541.36 158.607 541.287 158.523L535.309 151.644C535.255 151.582 535.188 151.531 535.113 151.497C535.038 151.463 534.957 151.445 534.874 151.446H529.593C529.516 151.445 529.44 151.461 529.369 151.491C529.298 151.521 529.234 151.565 529.18 151.62L523.099 157.901C523.019 157.983 522.966 158.086 522.945 158.198C522.925 158.309 522.938 158.425 522.984 158.529L526.671 167.104ZM534.61 152.607L540.168 159.006L536.794 166.309H527.577L524.191 158.438L529.833 152.607H534.61Z" fill="#212529"/>
<path d="M527.874 172.039L507.785 268.566L527.453 302.879L551.415 268.522L536.577 172.039H527.874Z" fill="#212529"/>
<path d="M537.071 170.885H527.406C527.274 170.885 527.146 170.931 527.043 171.014C526.94 171.098 526.869 171.214 526.842 171.344L506.614 268.544C506.587 268.68 506.609 268.821 506.677 268.941L526.908 304.232C526.956 304.316 527.024 304.386 527.107 304.436C527.189 304.487 527.283 304.515 527.38 304.519H527.406C527.499 304.519 527.59 304.497 527.672 304.454C527.754 304.411 527.825 304.349 527.878 304.273L552.489 268.981C552.573 268.859 552.607 268.71 552.584 268.564L537.641 171.379C537.622 171.242 537.553 171.117 537.448 171.026C537.344 170.935 537.21 170.885 537.071 170.885ZM527.453 302.877L507.785 268.564L527.874 172.037H536.579L551.415 268.52L527.453 302.877Z" fill="#212529"/>
<path d="M437.361 339.544H323.038V346.353H437.361V339.544Z" fill="#F5173E"/>
<path d="M609.18 333.296H494.858V340.106H609.18V333.296Z" fill="#F5173E"/>
<path d="M301.752 341.295H256.195V348.104H301.752V341.295Z" fill="#F5173E"/>
<path d="M515.795 347.028H470.238V353.838H515.795V347.028Z" fill="#F5173E"/>
<path d="M166.64 346.621H119.596V350.434H166.64V346.621Z" fill="#F5173E"/>
<path d="M250.481 336.7H203.437V340.513H250.481V336.7Z" fill="#F5173E"/>
<path d="M348.796 361.187H301.752V365H348.796V361.187Z" fill="#F5173E"/>
<path d="M68.64 219.278H21.5959V223.09H68.64V219.278Z" fill="#F5173E"/>
<path d="M652.62 70.9359H641.333V59.6445H630.048V48.355L618.761 48.353L615.458 52.2075H626.745V63.499H638.03V74.7904H649.317V86.0799L660.605 86.0819V97.3713L663.907 93.5188V82.2274H652.62V70.9359Z" fill="#F5173E"/>
<path d="M99.5579 127.256C99.5067 127.34 99.4346 127.41 99.3488 127.458C99.263 127.506 99.1662 127.532 99.0677 127.532H66.6114L62.9238 134.739H112.028L87.4809 86.765L83.3129 94.9069L99.5758 126.68C99.6236 126.769 99.6472 126.869 99.644 126.971C99.6409 127.072 99.6112 127.17 99.5579 127.256Z" fill="#F5173E"/>
<path d="M98.1189 126.38L82.6638 96.1778L67.2087 126.38H98.1189Z" fill="#F5173E"/>
<path d="M613.956 29.6763H624.673V40.3998C624.673 40.4754 624.688 40.5503 624.717 40.6202C624.746 40.69 624.789 40.7535 624.842 40.807C624.895 40.8605 624.959 40.9029 625.029 40.9318C625.099 40.9608 625.173 40.9757 625.249 40.9757H635.966V51.6992C635.966 51.7748 635.981 51.8497 636.01 51.9196C636.039 51.9894 636.082 52.0529 636.135 52.1064C636.189 52.1599 636.252 52.2023 636.322 52.2312C636.392 52.2602 636.467 52.2751 636.542 52.2751H647.26V62.9986C647.26 63.0742 647.274 63.1491 647.303 63.2189C647.332 63.2888 647.375 63.3523 647.428 63.4058C647.482 63.4593 647.545 63.5017 647.615 63.5306C647.685 63.5596 647.76 63.5744 647.835 63.5744H658.553V74.2979C658.553 74.4507 658.613 74.5972 658.721 74.7052C658.829 74.8132 658.976 74.8738 659.128 74.8738C659.281 74.8738 659.427 74.8132 659.535 74.7052C659.643 74.5972 659.704 74.4507 659.704 74.2979V63.0065C659.704 62.9309 659.689 62.856 659.66 62.7861C659.631 62.7163 659.589 62.6528 659.535 62.5993C659.482 62.5458 659.418 62.5034 659.349 62.4744C659.279 62.4455 659.204 62.4306 659.128 62.4306H648.411V51.7071C648.411 51.5544 648.35 51.4079 648.242 51.2999C648.134 51.1919 647.988 51.1312 647.835 51.1312H637.118V40.4077C637.118 40.255 637.057 40.1085 636.949 40.0005C636.841 39.8925 636.695 39.8318 636.542 39.8318H625.825V29.1083C625.825 28.9556 625.764 28.8091 625.656 28.7011C625.548 28.5931 625.402 28.5325 625.249 28.5325H613.962C613.809 28.5325 613.663 28.5931 613.555 28.7011C613.447 28.8091 613.386 28.9556 613.386 29.1083C613.386 29.2611 613.447 29.4076 613.555 29.5156C613.663 29.6236 613.809 29.6842 613.962 29.6842L613.956 29.6763Z" fill="#212529"/>
<path d="M49.9655 127.532H99.0617C99.1603 127.532 99.2571 127.506 99.343 127.458C99.4288 127.409 99.5008 127.339 99.5522 127.255C99.6035 127.171 99.6324 127.075 99.6362 126.976C99.64 126.878 99.6185 126.78 99.5738 126.692L83.3109 94.9188L75.0247 78.7264C74.9764 78.6321 74.903 78.5531 74.8126 78.4978C74.7223 78.4426 74.6185 78.4134 74.5126 78.4134C74.4068 78.4134 74.303 78.4426 74.2126 78.4978C74.1223 78.5531 74.0489 78.6321 74.0006 78.7264L49.4535 126.698C49.4087 126.786 49.3873 126.884 49.3911 126.982C49.3948 127.081 49.4238 127.177 49.4751 127.261C49.5264 127.345 49.5984 127.415 49.6843 127.464C49.7701 127.512 49.867 127.538 49.9655 127.538V127.532ZM74.5126 80.2475L82.6639 96.1779L98.119 126.38H50.9063L74.5126 80.2475Z" fill="#212529"/>
<path d="M27.8734 227.441C27.7208 227.441 27.5744 227.502 27.4664 227.61C27.3585 227.718 27.2979 227.865 27.2979 228.017C27.2979 228.17 27.3585 228.316 27.4664 228.424C27.5744 228.532 27.7208 228.593 27.8734 228.593H67.8121C67.9648 228.593 68.1112 228.532 68.2191 228.424C68.327 228.316 68.3877 228.17 68.3877 228.017C68.3877 227.865 68.327 227.718 68.2191 227.61C68.1112 227.502 67.9648 227.441 67.8121 227.441H27.8734Z" fill="#212529"/>
<path d="M20.3455 273.129C16.8752 274.225 13.8443 276.4 11.6929 279.337C9.54149 282.273 8.38159 285.82 8.38159 289.461C8.38159 293.102 9.54149 296.649 11.6929 299.585C13.8443 302.522 16.8752 304.696 20.3455 305.792C24.2204 305.162 27.7448 303.173 30.2883 300.181C32.8317 297.189 34.2284 293.389 34.2284 289.461C34.2284 285.533 32.8317 281.733 30.2883 278.741C27.7448 275.749 24.2204 273.76 20.3455 273.129Z" fill="#F5173E"/>
<path d="M42.6161 289.461C42.6138 286.991 42.0778 284.55 41.0448 282.306C40.0117 280.062 38.5061 278.069 36.631 276.461C34.756 274.854 32.5558 273.672 30.1813 272.995C27.8068 272.318 25.3141 272.163 22.874 272.54C26.4949 273.649 29.6644 275.892 31.9163 278.938C34.1681 281.984 35.3834 285.673 35.3834 289.462C35.3834 293.251 34.1681 296.94 31.9163 299.986C29.6644 303.032 26.4949 305.275 22.874 306.384C23.743 306.517 24.6208 306.583 25.4998 306.583C30.0387 306.583 34.3917 304.779 37.6015 301.568C40.8113 298.357 42.6151 294.002 42.6161 289.461Z" fill="#F5173E"/>
<path d="M35.3837 289.461C35.3838 285.735 34.2089 282.104 32.0265 279.086C29.844 276.067 26.7653 273.814 23.2286 272.648C19.692 271.482 15.8779 271.462 12.3294 272.592C8.78088 273.721 5.67896 275.942 3.46539 278.938C1.25182 281.934 0.0394529 285.552 0.000946482 289.278C-0.0375599 293.003 1.09976 296.646 3.25093 299.687C5.40211 302.728 8.45745 305.013 11.9818 306.215C15.5062 307.418 19.32 307.477 22.8799 306.384C26.4973 305.269 29.6629 303.025 31.9129 299.98C34.163 296.934 35.3793 293.248 35.3837 289.461ZM20.3454 305.792C18.0912 306.159 15.7855 306.055 13.5736 305.486C11.3617 304.917 9.29154 303.895 7.49366 302.486C5.69578 301.077 4.20913 299.31 3.12738 297.298C2.04563 295.285 1.39225 293.07 1.20842 290.793C1.02458 288.515 1.31427 286.224 2.05924 284.064C2.8042 281.904 3.98829 279.921 5.53687 278.242C7.08545 276.562 8.96496 275.222 11.0569 274.305C13.1489 273.388 15.408 272.915 17.6919 272.915C21.8472 272.915 25.8502 274.48 28.9044 277.299C31.9586 280.119 33.8401 283.985 34.1746 288.129C34.5091 292.273 33.272 296.391 30.7095 299.664C28.147 302.937 24.4469 305.125 20.3454 305.792Z" fill="#212529"/>
<path d="M596.772 241.336C596.736 241.27 596.687 241.211 596.629 241.163C596.57 241.115 596.503 241.079 596.43 241.057C596.358 241.036 596.282 241.028 596.207 241.036C596.132 241.044 596.059 241.066 595.992 241.102C595.925 241.138 595.866 241.186 595.819 241.245C595.771 241.304 595.735 241.371 595.713 241.444C595.692 241.516 595.684 241.592 595.692 241.667C595.7 241.743 595.722 241.816 595.758 241.882C595.837 242.031 603.796 257.02 608.883 284.872V284.83C608.878 284.685 608.929 284.543 609.024 284.434C609.119 284.324 609.252 284.255 609.396 284.239C609.541 284.224 609.685 284.263 609.802 284.35C609.918 284.437 609.998 284.564 610.024 284.707C610.553 287.59 611.03 290.515 611.455 293.48C611.025 290.519 610.548 287.594 610.024 284.707C604.899 256.631 596.851 241.479 596.772 241.336Z" fill="#212529"/>
<path d="M613.741 324.487C613.721 324.487 613.703 324.501 613.684 324.505C613.703 324.497 613.721 324.487 613.741 324.487Z" fill="#212529"/>
<path d="M613.578 324.515C613.593 324.516 613.608 324.516 613.623 324.515C613.602 324.517 613.58 324.517 613.559 324.515H613.578Z" fill="#212529"/>
<path d="M612.963 323.365C612.614 313.211 611.701 303.084 610.228 293.031C610.389 306.066 609.698 316.047 608.136 323.365H612.963Z" fill="#212529"/>
<path d="M613.624 324.509H613.684C613.704 324.509 613.722 324.497 613.741 324.491C613.758 324.486 613.775 324.48 613.791 324.473C613.811 324.465 613.829 324.455 613.847 324.443L613.89 324.417C613.908 324.406 613.924 324.39 613.942 324.376C613.96 324.362 613.964 324.358 613.972 324.348C613.99 324.329 614.006 324.309 614.019 324.286C614.028 324.278 614.035 324.269 614.041 324.259C614.103 324.162 614.134 324.048 614.13 323.933C614.13 323.746 614.113 323.562 614.107 323.377C613.78 313.866 612.963 304.378 611.659 294.952C611.624 294.696 611.594 294.433 611.556 294.177C611.519 293.921 611.485 293.722 611.451 293.492C611.021 290.531 610.544 287.606 610.02 284.719C609.994 284.576 609.914 284.448 609.798 284.362C609.682 284.275 609.537 284.236 609.392 284.251C609.248 284.267 609.115 284.336 609.02 284.446C608.925 284.555 608.874 284.697 608.879 284.842V284.884C609.474 302.081 608.853 314.671 606.956 323.377C606.924 323.526 606.892 323.677 606.858 323.824C606.839 323.908 606.839 323.996 606.858 324.08C606.877 324.165 606.915 324.244 606.969 324.312C607.023 324.38 607.092 324.434 607.17 324.472C607.248 324.509 607.333 324.529 607.42 324.529H613.555C613.579 324.524 613.602 324.518 613.624 324.509ZM610.228 293.031C611.7 303.084 612.611 313.211 612.959 323.365H608.137C609.703 316.047 610.393 306.066 610.228 293.031Z" fill="#212529"/>
<path d="M345.702 120.379C345.771 120.344 345.832 120.295 345.881 120.236C345.931 120.177 345.968 120.108 345.991 120.034C346.013 119.961 346.021 119.883 346.013 119.806C346.005 119.729 345.981 119.655 345.944 119.587C345.906 119.519 345.856 119.46 345.795 119.413C345.734 119.365 345.664 119.33 345.59 119.31C345.515 119.29 345.437 119.285 345.361 119.296C345.284 119.307 345.211 119.333 345.144 119.372C345.115 119.388 342.064 121.058 336.015 122.861L335.975 122.877C335.849 122.924 335.743 123.014 335.676 123.131C335.61 123.247 335.586 123.384 335.61 123.516C335.633 123.649 335.703 123.769 335.806 123.855C335.909 123.942 336.039 123.989 336.173 123.989C336.229 123.989 336.285 123.981 336.338 123.966L336.735 123.844C342.652 122.049 345.579 120.449 345.702 120.379Z" fill="#212529"/>
<path d="M206.261 122.305C194.114 125.977 177.649 153.505 174.833 158.348L197.917 161.923C204.919 152.226 212.878 134.218 211.969 127.451C211.798 126.184 210.607 125.479 209.228 124.671C208.123 124.025 206.995 123.356 206.261 122.305Z" fill="white"/>
<path d="M202.103 122.979C189.401 130.692 174.819 156.025 173.489 158.37C173.674 158.72 173.783 158.918 173.795 158.938C173.865 159.067 173.883 159.217 173.846 159.359L174.059 159.393L198.088 163.124C198.117 163.127 198.147 163.127 198.177 163.124C198.268 163.124 198.357 163.102 198.437 163.061C198.518 163.02 198.588 162.961 198.641 162.888C204.737 154.565 212.914 137.642 213.182 129.077C213.195 128.674 213.187 128.27 213.16 127.868C213.148 127.669 213.134 127.471 213.108 127.298C212.864 125.477 211.322 124.561 209.814 123.676C208.716 123.026 207.581 122.355 207.023 121.348C206.961 121.236 206.864 121.148 206.746 121.098C206.629 121.047 206.498 121.038 206.374 121.07C205.276 121.37 204.216 121.795 203.214 122.337C202.845 122.54 202.476 122.752 202.103 122.979ZM211.969 127.461C212.878 134.228 204.919 152.236 197.917 161.933L174.833 158.358C177.649 153.515 194.114 125.989 206.261 122.315C206.995 123.366 208.128 124.035 209.238 124.684C210.607 125.489 211.798 126.194 211.969 127.461Z" fill="#212529"/>
<path d="M148.581 163.289C157.802 158.489 168.889 158.467 172.29 158.591C169.994 154.255 160.793 135.869 163.061 123.62L155.738 124.76C154.616 127.054 146.54 144.285 148.581 163.289Z" fill="white"/>
<path d="M153.824 126.176C151.357 131.8 145.465 147.424 147.543 164.268C147.554 164.362 147.589 164.451 147.643 164.528C147.698 164.605 147.77 164.668 147.854 164.711C147.935 164.752 148.024 164.774 148.114 164.774C148.212 164.774 148.308 164.749 148.394 164.701C156.778 160.04 167.051 159.653 171.278 159.717C172.493 159.734 173.213 159.79 173.243 159.792C173.347 159.8 173.451 159.78 173.545 159.734C173.638 159.688 173.718 159.617 173.775 159.53C173.807 159.477 173.831 159.419 173.846 159.359C173.883 159.217 173.865 159.067 173.795 158.938C173.783 158.918 173.674 158.72 173.489 158.37C171.784 155.157 163.52 138.929 163.881 126.956C163.909 125.766 164.042 124.58 164.278 123.414C164.304 123.294 164.327 123.173 164.355 123.054C164.379 122.961 164.379 122.863 164.355 122.77C164.331 122.682 164.286 122.6 164.224 122.532C164.16 122.463 164.079 122.41 163.99 122.38C163.901 122.349 163.805 122.34 163.712 122.355L163.234 122.429L155.273 123.666C155.184 123.68 155.099 123.714 155.026 123.767C154.953 123.82 154.894 123.889 154.852 123.97C154.838 123.993 154.674 124.315 154.4 124.903C154.243 125.24 154.047 125.669 153.824 126.176ZM163.069 123.62C160.801 135.869 170.002 154.255 172.298 158.591C168.896 158.467 157.81 158.489 148.589 163.289C146.54 144.285 154.616 127.054 155.745 124.764L163.069 123.62Z" fill="#212529"/>
</g>
<defs>
<clipPath id="clip0_84_12434">
<rect width="760" height="365" fill="white"/>
</clipPath>
</defs>
</svg>
